<mxfile host="app.diagrams.net" modified="2024-03-27T07:23:42.222Z" agent="Mozilla/5.0 (Windows NT 10.0; Win64; x64) AppleWebKit/537.36 (KHTML, like Gecko) Chrome/109.0.0.0 Safari/537.36 SLBrowser/9.0.3.1311 SLBChan/103" etag="wh5_QB1V8HqGxrtS72zU" version="24.1.0" type="device">
  <diagram name="第 1 页" id="wq_CFxC2TJSjtY-ivJky">
    <mxGraphModel dx="1107" dy="518" grid="1" gridSize="10" guides="1" tooltips="1" connect="1" arrows="1" fold="1" page="1" pageScale="1" pageWidth="827" pageHeight="1169" math="0" shadow="0">
      <root>
        <mxCell id="0" />
        <mxCell id="1" parent="0" />
        <mxCell id="a-Nkdi_0TSclpbkDLBsH-2" value="" style="rounded=1;whiteSpace=wrap;html=1;fillColor=#CCE5FF;" parent="1" vertex="1">
          <mxGeometry x="194" y="160" width="440" height="680" as="geometry" />
        </mxCell>
        <mxCell id="a-Nkdi_0TSclpbkDLBsH-3" value="&lt;font style=&quot;font-size: 24px;&quot;&gt;Template&lt;/font&gt;" style="text;html=1;align=center;verticalAlign=middle;whiteSpace=wrap;rounded=0;" parent="1" vertex="1">
          <mxGeometry x="359" y="170" width="100" height="40" as="geometry" />
        </mxCell>
        <mxCell id="a-Nkdi_0TSclpbkDLBsH-4" value="" style="rounded=1;whiteSpace=wrap;html=1;fillColor=#CCE5FF;" parent="1" vertex="1">
          <mxGeometry x="234" y="230" width="350" height="70" as="geometry" />
        </mxCell>
        <mxCell id="a-Nkdi_0TSclpbkDLBsH-5" value="Now you&#39;re an expert at emotion analysis. Select an emotion label for the question based on the following conversation content and context information. Pay attention to the context of the conversation and the mood of the punctuation at the end of the sentence. Context is the mood of the conversation similar to my question. You can choose whether to refer to context or not." style="rounded=1;whiteSpace=wrap;html=1;fillColor=#CCE5FF;" parent="1" vertex="1">
          <mxGeometry x="234" y="320" width="350" height="140" as="geometry" />
        </mxCell>
        <mxCell id="a-Nkdi_0TSclpbkDLBsH-6" value="&lt;div style=&quot;text-align: left;&quot;&gt;&lt;span style=&quot;background-color: initial;&quot;&gt;Joey:&amp;nbsp;Come on, Lydia, you can do it.&lt;/span&gt;&lt;/div&gt;&lt;div style=&quot;text-align: left;&quot;&gt;Joey:&amp;nbsp;Push &#39;em out, push &#39;em out, harder, harder.&lt;/div&gt;&lt;div style=&quot;text-align: left;&quot;&gt;Lydia:&amp;nbsp;Push &#39;em out, push &#39;em out, way out!&lt;/div&gt;&lt;div style=&quot;text-align: left;&quot;&gt;&lt;font color=&quot;#990000&quot;&gt;Joey:&amp;nbsp;&amp;nbsp;Let&#39;s get that ball and really move, hey, hey, ho, ho.&lt;/font&gt;&lt;/div&gt;&lt;div style=&quot;text-align: left;&quot;&gt;...&lt;/div&gt;&lt;div style=&quot;text-align: left;&quot;&gt;Joey:&amp;nbsp;Push!&lt;br&gt;&lt;/div&gt;" style="rounded=1;whiteSpace=wrap;html=1;fillColor=#CCE5FF;" parent="1" vertex="1">
          <mxGeometry x="234" y="480" width="350" height="130" as="geometry" />
        </mxCell>
        <mxCell id="a-Nkdi_0TSclpbkDLBsH-8" value="&amp;lt;speaker_1: Hey! Let&#39;s go now, ho,ho.&amp;gt; : joy" style="rounded=1;whiteSpace=wrap;html=1;fillColor=#CCE5FF;align=center;" parent="1" vertex="1">
          <mxGeometry x="234" y="740" width="350" height="70" as="geometry" />
        </mxCell>
        <mxCell id="a-Nkdi_0TSclpbkDLBsH-9" value="&lt;div&gt;&lt;span style=&quot;font-family: Constantia;&quot;&gt;&lt;font color=&quot;#3399ff&quot; style=&quot;font-size: 12px;&quot;&gt;Input&#x9;utterance&lt;/font&gt;&lt;/span&gt;&lt;/div&gt;" style="text;html=1;align=center;verticalAlign=middle;whiteSpace=wrap;rounded=0;" parent="1" vertex="1">
          <mxGeometry x="234" y="230" width="100" height="30" as="geometry" />
        </mxCell>
        <mxCell id="a-Nkdi_0TSclpbkDLBsH-10" value="&lt;div&gt;&lt;span style=&quot;font-family: Constantia;&quot;&gt;&lt;font color=&quot;#3399ff&quot; style=&quot;font-size: 12px;&quot;&gt;Instruction&lt;/font&gt;&lt;/span&gt;&lt;/div&gt;" style="text;html=1;align=center;verticalAlign=middle;whiteSpace=wrap;rounded=0;" parent="1" vertex="1">
          <mxGeometry x="244" y="320" width="80" height="30" as="geometry" />
        </mxCell>
        <mxCell id="a-Nkdi_0TSclpbkDLBsH-11" value="&lt;div&gt;&lt;span style=&quot;font-family: Constantia;&quot;&gt;&lt;font color=&quot;#3399ff&quot; style=&quot;font-size: 12px;&quot;&gt;Conversation&lt;/font&gt;&lt;/span&gt;&lt;/div&gt;" style="text;html=1;align=center;verticalAlign=middle;whiteSpace=wrap;rounded=0;" parent="1" vertex="1">
          <mxGeometry x="254" y="480" width="60" height="30" as="geometry" />
        </mxCell>
        <mxCell id="a-Nkdi_0TSclpbkDLBsH-13" value="&lt;div&gt;&lt;span style=&quot;font-family: Constantia;&quot;&gt;&lt;font color=&quot;#3399ff&quot; style=&quot;font-size: 12px;&quot;&gt;Similar utterance&lt;/font&gt;&lt;/span&gt;&lt;/div&gt;" style="text;html=1;align=center;verticalAlign=middle;whiteSpace=wrap;rounded=0;" parent="1" vertex="1">
          <mxGeometry x="229" y="730" width="120" height="30" as="geometry" />
        </mxCell>
        <mxCell id="a-Nkdi_0TSclpbkDLBsH-14" value="&lt;font color=&quot;#ff3333&quot;&gt;Joey: Let&#39;s get that ball and really move, hey, hey, ho, ho.&lt;/font&gt;" style="text;html=1;align=center;verticalAlign=middle;whiteSpace=wrap;rounded=0;" parent="1" vertex="1">
          <mxGeometry x="254" y="250" width="310" height="30" as="geometry" />
        </mxCell>
        <mxCell id="a-Nkdi_0TSclpbkDLBsH-17" value="Emotion label selection: &amp;lt; joy, surprise, sadness, neutral, anger, disgust, fear&amp;gt;.&amp;nbsp;&lt;div&gt;Only the label needs to be included in the answer.&lt;/div&gt;" style="rounded=1;whiteSpace=wrap;html=1;fillColor=#CCE5FF;" parent="1" vertex="1">
          <mxGeometry x="234" y="630" width="350" height="90" as="geometry" />
        </mxCell>
        <mxCell id="a-Nkdi_0TSclpbkDLBsH-12" value="&lt;div&gt;&lt;span style=&quot;font-family: Constantia;&quot;&gt;&lt;font color=&quot;#3399ff&quot; style=&quot;font-size: 12px;&quot;&gt;Label&#x9;Statement&lt;/font&gt;&lt;/span&gt;&lt;/div&gt;" style="text;html=1;align=center;verticalAlign=middle;whiteSpace=wrap;rounded=0;" parent="1" vertex="1">
          <mxGeometry x="229" y="630" width="110" height="30" as="geometry" />
        </mxCell>
        <mxCell id="a-Nkdi_0TSclpbkDLBsH-61" style="edgeStyle=orthogonalEdgeStyle;rounded=0;orthogonalLoop=1;jettySize=auto;html=1;exitX=1;exitY=0.5;exitDx=0;exitDy=0;strokeColor=#CC0000;" parent="1" source="a-Nkdi_0TSclpbkDLBsH-19" edge="1">
          <mxGeometry relative="1" as="geometry">
            <mxPoint x="270" y="1140" as="targetPoint" />
          </mxGeometry>
        </mxCell>
        <mxCell id="a-Nkdi_0TSclpbkDLBsH-91" value="向量化" style="edgeLabel;html=1;align=center;verticalAlign=middle;resizable=0;points=[];" parent="a-Nkdi_0TSclpbkDLBsH-61" vertex="1" connectable="0">
          <mxGeometry x="-0.4079" relative="1" as="geometry">
            <mxPoint as="offset" />
          </mxGeometry>
        </mxCell>
        <mxCell id="a-Nkdi_0TSclpbkDLBsH-19" value="" style="rounded=1;whiteSpace=wrap;html=1;strokeColor=#0066CC;" parent="1" vertex="1">
          <mxGeometry x="20" y="1100" width="120" height="80" as="geometry" />
        </mxCell>
        <mxCell id="a-Nkdi_0TSclpbkDLBsH-24" value="&lt;span style=&quot;font-size: 24px;&quot;&gt;Utterance&lt;/span&gt;" style="text;html=1;align=center;verticalAlign=middle;whiteSpace=wrap;rounded=0;" parent="1" vertex="1">
          <mxGeometry x="50" y="1125" width="60" height="30" as="geometry" />
        </mxCell>
        <mxCell id="a-Nkdi_0TSclpbkDLBsH-62" style="edgeStyle=orthogonalEdgeStyle;rounded=0;orthogonalLoop=1;jettySize=auto;html=1;exitX=1;exitY=0.5;exitDx=0;exitDy=0;exitPerimeter=0;entryX=0;entryY=0.75;entryDx=0;entryDy=0;fillColor=#0066CC;strokeColor=#CC0000;" parent="1" source="a-Nkdi_0TSclpbkDLBsH-26" target="a-Nkdi_0TSclpbkDLBsH-29" edge="1">
          <mxGeometry relative="1" as="geometry" />
        </mxCell>
        <mxCell id="a-Nkdi_0TSclpbkDLBsH-92" value="向量化" style="edgeLabel;html=1;align=center;verticalAlign=middle;resizable=0;points=[];" parent="a-Nkdi_0TSclpbkDLBsH-62" vertex="1" connectable="0">
          <mxGeometry x="-0.4535" relative="1" as="geometry">
            <mxPoint as="offset" />
          </mxGeometry>
        </mxCell>
        <mxCell id="a-Nkdi_0TSclpbkDLBsH-26" value="&lt;b&gt;知识库&lt;/b&gt;" style="shape=cylinder3;whiteSpace=wrap;html=1;boundedLbl=1;backgroundOutline=1;size=15;strokeColor=#0066CC;" parent="1" vertex="1">
          <mxGeometry x="40" y="1216" width="60" height="80" as="geometry" />
        </mxCell>
        <mxCell id="a-Nkdi_0TSclpbkDLBsH-67" style="edgeStyle=orthogonalEdgeStyle;rounded=0;orthogonalLoop=1;jettySize=auto;html=1;exitX=1;exitY=0.5;exitDx=0;exitDy=0;shadow=1;strokeColor=#CC0000;" parent="1" source="a-Nkdi_0TSclpbkDLBsH-29" edge="1">
          <mxGeometry relative="1" as="geometry">
            <mxPoint x="470" y="1187" as="targetPoint" />
          </mxGeometry>
        </mxCell>
        <mxCell id="a-Nkdi_0TSclpbkDLBsH-29" value="" style="shape=image;verticalLabelPosition=bottom;labelBackgroundColor=default;verticalAlign=top;aspect=fixed;imageAspect=0;image=data:image/png,iVBORw0KGgoAAAANSUhEUgAAAMEAAAC4CAYAAABab4iVAAAAAXNSR0IArs4c6QAAAARnQU1BAACxjwv8YQUAAAAJcEhZcwAAEnQAABJ0Ad5mH3gAAB++SURBVHhe7Z13eFXF1oexUJQiig2Va2/3otf2qddKbwIiTQREBAQUQQQRREV67zX00EMvoROaFFEQIYU0Suihg/jd8nz3edY374QNh2QnOYQknmSvP94Hcs7es2fPXr+ZtdbMnpPnv/85JYriZVKI4H//OClHTibKr/FHZen2gzI+bL+MWLZXhitKDiVo9X5ZtC1Bfok5IocSE+XixZPyfz42f1kEfBh3+LiMXrFP6g6JlLe77Za3uipK7qLGgEgZuHivhO8/Kv/658mrRRCVcExaT4qR0t3D7cEVekdKrSHR0igoTpqOj1eUHMtHY+Ok9rAYqdTHdO6XxNBk9B75yYwM/zZCsCI4d+GEfDcrTkqb3r9czwhpN+OATN92WhbtPi+hERdkaaSi5FywYWx51i9npNOcBKnUN8KKof2UWDl8IjFJBKt2HpKaAyOllBFBh5AEWR1zUTbs/UNRch3r4/+QLgsOSdme4VK1X4TM35ogeQgShoTukzLGDXqnX5TM2XHOHuhWgKLkBhgZ6hr36O1u4dJzXrzkYTjoOD3WjgItJ++TldG/u56oKLkJPB5GA+LgPPuPHZe2k2OsCL6Ze1BdIcUT9Ao9KuV7R0jzsdGS54ARQbvgSyKYoyJQvEGvpUesCFqOUxEoHkVFoHgeFYHieVQEiudRESieR0WgeB4VgeJ5VATKdREWe1Hm/npOpm87I8siz8v6vddnM4vDz8u6+Oy1OxWB4heDVh6TfsuOyuwdZ65aT7bwt3PSOCjOLkkeaI5BFM53K/f8Lv2WHpVuCw7Jol3nL3/uxrKoC9J22n6p2j/KXmdVNi7ZyVIR0FgLTCOxbHXmz2kzZ8dZWePTgJnFtG2nZfS6RAneckrWxmWvqNeZ+59t7mvM+hMyZetpv66/zhwTsj3pnKk/XTmHZcCTN5+SGaatfA0tu3hv0B6p3CdSBhtD972PtESwePd5qTssWioZA5tq7t/53A1GgC+nH5DyvSLk3YFRMiLseLY9rywVATfRYVaCvD88RuoMjU6TFhP3WsG4lXM9tAreZxdHfTw2TpbvueB6TFaBQXw//5BUMA3cfMJeWW56O7fjfKEHpO05p+WkfbLCnLPGPIeeS45I9QF7rFFN2Xoq210GRFC2R7g0Gx8vnecelO/mHbJ8NfOAvDsgyoqg6bh4W/cr3yVIlb6RUtEPEcDyqN+l4+yD9j2WBiNjZN7Os8a9cj82M8lSEWAEzcbvlVLdU77alhzeXJvz61nXcq6HTyftta+HNhoTa4dct2OyCka2b40xJBmPEYHpzd2O8wURdJydIGXMOZ9cEs4KYxz0krzpB8OzsZd0QAQ8J9qylKnDZbqFX35DC7tx+85fEcB80xE2M2Li/r81YssOtyjbRNB+xgFjhOeNYfzuSph5qFmh+twgAj6fuOmUcTvirRhwjbKjh/QF377LgsPSbeFh6bH4iOUH8zd0X5T0d1fzXWdjN13mX/kM+phzl4T71/bc1yjjvlYzo0uZ7hHG/Tud5aNetomgw6wDpjz/VI3x8Arcwl3nbI+HIeAnE1vwmeN38h3HzSTmMCyJSJlZ8BWB84rdrO1Jx3OuU1ZyeBhcd64ZnXi9FN8+1JSfWg+83lx3ifFrQ0zZ1BN/mPtNSwScgy/snMP5K0ww6SYCgkyCy4WmXOcenXYCrsUx83zqy7mpvRTl3BsxBtkd3h1BgE670yn5Ht/TGHNL05Yj1ybauIV2wEbazdgvIabuHEMMg8v2+dT99mUV3/P9hfo6ImB0wW64L7djM4uAFAEPpoVpcAKu0SZAbDvtgNQ1cUOtIXvsZ31D6VnOy9A1x+3QWWvwHqlpaG7iCgJKX0N1RNBgVKxt3NbmAdU2ZXF8k7Hx0if0iDG8ZMZpIAj9Ytp+qT8ixgRqe0xcE22NYJi5ZvKXjdaY+xqy+rj1+4lvcO3wj/kMg3YTAeeQccHQqU9tcw7+Nue0N352chGMDEu030NoZFKmhXYiboD+y49JJ+NP40sTWBI7UP8Z286k6BiCTUxBJuYDc281jJtTf2Ssfd4DVxy73O64JRgkzxBhUH9iq07mfhAPIuNeq/WPkiGrjts2HLDiqA1sG5q2piwE44sVpU893ECIuEHcPyKgftPNfZJkcDs+MwhIEYz/8aRU6hNhG4GUWWUTXGGITsOwU8CHo2Olar9I66vWHRpjGx9jr26OJ9vkPHhHBPilHFvDGEjjoFhbHvdJAPqVqZuv78kDw5Dxaav2izLXijN/J+2+UcVck5cwcOE4lh6TXpLPuQ6BIEZQw5TPK6rvmmtyHV8RcM4PCw7Ze+S7dzjH3A914n6rmzpSlq8IuEY5Y4QY4sLdxkDNZ+M3npQqpi1svUwZZXtE2Ho751M2LhSjn3NvE0zbYrzOvdM5kLigfaivs8MIoxMiwNgRd4VL7ct1ECzX4XlwfHXTaw9edcyKjs+AZ8Rz82WGGaHSc20YhXi2lEmbcs8kF/y1nYyQbSKo3DfCNj49lBv0HI5r4isCMg+z7bvOF226k8bkc8B4V5oeiIc1cdNJ+2AIxL40D8MxakcEQI+5yDQyn9Obk+WgkSlrkvG5GeYZYeghKafJ2Dj7UDA4rjFg2VFrDBiCk8maZlyAesaIOL7puL2m10w6fq2pL/VjFKB8XxEwytD783nLifusS+Sc86WJnRyx+ysCjsVoCJgRGAbTxRgOx/IdoymjIwF2UzP68Rmj6uQtV7JMjKD06twH3zsiwCfH6PksLYgVag6OttfkOTcyhgy0DR0U7WBHF3MtrpcaQRtOGkFGWkH1NKN0RWMHdCq4i9TH7ZzrJdtEUNpA6qt8KhBAOfMEviLotuiwTRE6ZeKS0PswTBIsOg2D3/iFcXWoO41GapHPHRHQy44zRuPbEzGsfzQmzj74z4P32zL6miCOXpG6IkzExH0AD5FULvfzvfH1cQF6mweFcXIPxC2+D2qp8Ytxp6iTIwKMEYPBKDAO5kd8zyHvbkVlzvFXBJTf1gTMvoE/cYFTDulVhDF2wwkzMkWZ+ofb8nzblXvH1XEE6IgAURGHUH+u3SkkwY4O3CvGzsg1yIwC7NpQztwPI8+wNYky1Lh1uGtBXNOMTLity3xGJDdo64/N+ZWMCIaYMvm7wagYO2L1MaOv00lmNtkmAgJT/O/+y465QoM5fp+vCPjc10h6LDlsjaGeMS6m6p2eBeOi56Xu9EiO8TgiQBj08k45QP3aGOHwPQZD4IshIDKMFFHRDmQ84GtjABzHNfCbGSXwwzEcyk/+kDEyzuF7RwQIh9w612DYd+rpgDGSSWPHD39FgOsxwAjWNxaat/OcfGx6fe6Ne8CgEDXHUp/gLVe7JpRHjMJI5ysC5/tWppMo1ytcuptOievQYdmYwnQuGDw7NiACskXUn/ujbfDvqTfP3unkUoMOxYkpcGmpE3VGBLRVVqTQIdtEkNGYIPkQ2neZMQbzMD4wAaAVyKXPeaAdQhwR7EkhAoJgtywDBsk5jCyMDASM/M2104LejV6cHpgHjsE6o48D90/aEMN1REDWpPWU/fYcglCyQb7n0EbfzTtoReivCHDPhpuA3VcEtBs7rnHvGCMiYJTDoCg7yb24+vkONz240+5uIuC8RmbkxI0EG/OYdmBGHnFwvRDTJmzYRhsiiL7GheQ+GJl8n2NyyNbx3BABbUZ9+ZyMGB0O9801nc8zE8+IAP80eU+N0eB7OiPBUjMSdKQMU18eMCm/+TvPukJMsNzHhSB4Tj4PQc/HCILx+I4EZH8QAa4Ys6S+5/CQv56VMkWaGSIgs/WOCTYpG1eSGMg5HoMnw4QbmJoISpvzKI82djoKYhHiMcrCXqgvs/QcR3oYkWMHvmUlhxG6hblXzuG5LrgUh/EdzxX3qkrfKFPvCJlw6VrJy7gePCMCgubgrbgAV8rCkFlOQUzQin2WzAPrZfxneiPiAt/AEQim8XHpUXkYGFYvGxMkHc9I4vuwER0jED64IwLf0YE1NfON2+J7DvML9HxkpjJbBFOMqAnIaSOE5tsp0BZOvJWaCMqYa9NeLIjraiAeIHGBCJzjGGFwZ2hTvp+0+WqxJYeOgzSyvTcjMkYj2sj3GEZPOivqVmdY9FWuc2aQbSJoaQJKjJuFbKnhPJSsEAENjOtCQIcY8edJU1Y2BkTPOHpdUgaFMslW0eD0aPxNb0Y9mPnkwXI8fjD3R86d46krs7kYD2LCmAn2ERTfOSKgTkmZrKRlCKyvmW3qhMDIx+NCOOdktgioL/+nLbhvhJAUxCba2AghczzXvpaYwBEB5fdfftSmNmkj2vAz04ZOhs0py4F2IklAnEJHwqjp5rICGTXiDqdDSV6/6yHbREDARYPhe6fG2A1J2ZusEAEPhTrw4Mjw4L44QWJ7M0o5vjk9DAEi32Es5NCZoCKfjuGwUTG9kuP6MOnVY/FhWzZlUf4nE+Ktq8Nn5Y3R0iv6igARIkAMmmuQQeIc/G3OwdizQgR8jjgJ1rkO3yG4ssYAaX/ahZghNRFw7Q7GlcO/JzXM6ErWzREBfj33TzuQLeL/tBkbuSV3RcmC0Wk4z4CFls69usFoQkfF3BD14Lkmz6xllGwTAQ2bHsPDEu2DzGwRcP1PjEF0Cjloc9DO9VgajHFxrO81qMMkMzLVN9egPOd4jI2ekCyScyyQBWJkwD928uyc96lxsZzsiK8IACGQBvTNzXPO5yZo7si2gMYwskIE9trm/9wfhsoIwD3hxjDzS5tQl+SunRMTcH0MF3DZnJiAOZx6I4yrZdqamXvExiiJSBAZngDtRr05tpHphLhfUuetpySNFs61UoNnTDvzDBkRGBkoi8/djveXLBVBILIq+oJd248Lkl7KjsYlaAvezFqcM9Zw3Y5z4HiCZnpKAmBfYaUGPZyz3melqZs/52QU6oeoQs09MfL5Gjn/H2BcGdwS3Jnk6WRHBIwcBNcOjGK4MZWNEBEFCQbiAMpDlLx/YDsHY1OkyXH5+IxzKYsRgISE77XSgjJJB5OVwt3CnUzNhfIXz4nAyyCAz4L3WgMkEUAw7AiBeQX8dwzL7d2Hb+cekgYjY6V36FE7EiESwIApp8XEfdLGjGKMzr5BK94Ay1BwDwcsP2Y7HkalH+YfsqLzHaH8BSEw8YmNUofr7ThUBB4CYyGzRQ8MzU0cQu79m9kJ0mRcvP2MHt3OrPu4VsCsMUkFZsHdjA53hjjJd3RxYARipSqCcD7DttyO9RfOpbzMGDlVBB6DeICsFVkuXBR8a543cQmBLj6373IKL6Ai8Ci8ajph0ynrXw8yMDGIb52VMUmgoiJQPI+KQPE8KgLF86gIFM+jIlA8j4pA8TwqAsXzqAgUz6MiUDxPqiL4fMo++2YVGx8pSm6mw2x+0d5FBKwXZy0Jr+MpSm7G2TgthQicF0kUxStcJQJWFPKqHxtfsQuYouRmmk2Ity8MaWCseBbNDimeR0WgeB4VgeJ5VASK51ERKJ5HRaB4HhWB4nlUBIrnUREonkdFoHgeFYHieVQEiudRESieR0WgeB4VgeJ5VASK51ERKJ5HRaB4HhWB4nlUBIrnUREonkdFoHgeFYHieVQEiudRESieR0WgeB4VgeJ5VARKCuZujpNW3/aVtyvXkL+//Ia8Xq6qNG7zjQQt2Chh0Wddz8nJqAiUy6zYnSgdeo+UR58qKQULF5Gb8+aVG2+80f57S8FCcnfxEvJu/WYyddWvsj7ud9cyciIqAsWyMuKktP6+v9z7wIPG8G+SPHnypOCGG26QArfcKmWq1pbZG/fI+vjcIQQVgWIZHrJaHnv6GbnxJncB+JIvfwGp0bC5LN15xLWsnIaKQDE9+kUpXaWm5MuX39Xo3Sh82+0ycnaYrI0971pmTkJFoEhYzDkpXuIhV2NPjZvMiFG/RTsbR7iVmZNQESiycNs+ufOe4q7GnhYvvFZKFu845FpmTkJFoMi0Nb/JHXfd42roafHs/7wui35JcC0zJ6EiUGTpb8fkrnvvczX01CB1Wv7deiY4PupaZk5CReAnBI9MFC359bCEbNwjs9ZHysKfE2TNnjP2O7dzcgqro07L/Q8+Yoz7hhTGnhpkiHqMmSVros+5lpmTUBH4Ab3dkBkrpEHLr6TkC69IiYcfk/sfelQe/+uz8n6zNjJg8mIJNeLIaWJYs+esTFr2szRu09lOjrkZe2q8/FY5mbs5Nsd3AKAiSId5W+Llk6+6yl8eeUIKFipyVR79hhtulFsLFba96PvNvpD5P+3NMUax8OcD0nngeHnulTelUJHb7ESYr5GnBsc98+I/ZOLSbbIu9oJr2TmNKyLYoyJIzqrIU/L5d/3kruL3W4N3MwpwZlI/at1Jlu065lpWoLAu7neZZAy4Sp1Gct9fHrZLItzuyQ1coFdKVZShZlRcmwvcIAcVQRqMXbhJnij5vNxggkA3o0jO3feVkJ5jQkzsEJgGwtKIz7/tJ0/87Tm5+eabXe/BIW++fHL7nXfLbbcXk6LF7pKSpvdv23WwTA/bJWtjco8AQN2hVCDgbdmxp3F3/PeVmUCq+F79gEsbrgw/KUOmL5eKNRtYw07L9bm1YCF58pnn5YdhU2RC6Fbr9hA3zFgbLit2n8gVMUByVASpQDD8j9KVTI/pv7sATCCRdw8EY8H1mWwM+LNv+shjTz9rXLaCrnUG3L0SDz8u9Vu0l/FLttqM0Ya93nj+KoJUWLz9kDz995f8WlDmy1PPvihj5m/405caL9913PbmrxofvqhxaVJbGQo33XSzlKr8nnQdMc0GzIjHrczcioogFS6LIA3jceNvz78s4xZvMSPBn2dIpC6rfdDErgfCRXOrp0Oxu++Vdj2G2XkP1hC5lZfbuUoEh5f0ljHjQ6RxnzXSY060rInO+SsEr5W1MeetEdVv/qUUKXpHmv6zGyw/aNW5j8zbEpetPSqiIxb5fsgkm/bMX+AW1/pZzD0VKXq7lK9eVwZOXmxcnzOuZXqFq0RwJriBQGJwI/llRh/ZvWGRbN+xQzbvYWo8948KC37aJ12HT5WX3yovhW8res0CAJYT0LtWqFFP+k5cIMt+O5rl8QGp3BEhq6VSzYZyT/ESaY5eefPmk2dfek0+M0KduS7C9P7e6+iS4yqCy2KY3lziV4yWX3bulo255C2i1Bgzf73U+uhTmzvPew2589Rg3oAJto/bdJbJy3/JslFhoRFuy4495G8vvCK33Jp64AvFH3jQvgwzduGPdr1Qbsz0ZIQUIjgd3FCOTm4sq0ImypadUbIpOlE2xuXe3mJF+Alp1u4HKfniq9ZwM9L7pwZlFSpcRF56vbR0HzXTpl3d6pAReJmlV1CIlKlaRwoVKWpHILc6AMH9cy+/YQNlLwa+6XGVCBLCxkmP8WulXLeduT4wXm0MckTIGqlSu5Ex1NtcjceBWdXbi91tYwR625tuvtkaFqLhDSuWHaSXRWJpBasuQzZEmVgr4zs2rI29IDPXR0jjLzqbkebxNI2frA91a/plF5vz92rgmx5XicAL2SFSl1NX75TW3w+ws8H5C9zqakCAgbFkolLNBjJoSqgMmhpql1GUrVZH3qxQXZq0/V76Gb+/28hp8kb5qlK02J1pjiR58+U3o0IZ+arniKR1RtcYZ7GOqVfQbHnl7Qp2JjetaxUx4nyzQjUzAs3IkYv7shNPiWDx9oPWhXitbBX7JlVavSi9/4vGjWnfc7jteXE/WDDG2qA5m2LsbgssqyabxKgyc124tPi6h11lirG7lQksV7jr3vulduNWMiB4sT3Xqd+6uAs2qzRj7W4rEmd5AhNXo+aslfc+bCkPPPSYqVs+17IdWBbxsRkppqzckakuWG7FEyKgFww2BsFKT4LV9BaNIZAPWnwpQSaAJGbwpxflGCaohs1cKdU/aGpTkG5lO+BKPfrUM/Jpp14SvGK7/DB8ijRq1VEq1PjAjjIV32sgDT/tIB37jZGm7brYt7huLVg4zd4//y23SLV6TeyoFbrziKmT+v7+kKNEwEOlZ1tmjG3UvHXSqX+QfDtoggw0D52Ab3XkaeszXzn+ol0z37HvGNOrl0o7e2KMi/Th62Xfke6jZxiDzlj2hHPmb9krnQdOkMdNj5w3f9o7OBQ2Qe0zL70m9z7wlxSL2kh13nH3vXbjq7SMnxiF3r9Nl4GyyLRDRurtZXKECHioPFxeXnmnbmPrE7MW5p77StjNoh587Gl5/tW3pMw7teTrPqNlyqod1vUh8CUleO/9f0nb9TFG9OjTz1gXgsVimRFAIr5Rc9dKvU/aJi1ZvsY1SP7APd1z3wOmTT6yI9DyXLDzw59BwIsAAZBn/6B5O3n4ib+aIf9WV4Omp2T5L8J46Y0ydjsQ/HNciOTHOnAOx5euUksGT1tqhJOQqelDyiKY5eWVtyrVSHsW9xohLcp9MhKScSI2cauDkj4BLwKCO3p4fOy0XAJf6Nl54yuttCWCYbPZdj2Gy6x1kVlnREbEzOiSkfrwsw7y6JMlr3lRni+0AenWD1t9LeMWb7Jlq/tzfQS0CJbsOGRXN2KwbgaRUVgzX6dxKwmav9G6LW7Xzgp4KX3glCXythkVCpgg1q1u6UHM0mPUTFnKcgyPLHXOagJWBOxzyYvtmeVCsF6eiSPiCVyI+Vv3/ikzp6RZed+AdxX8fWPNF4J8en+3spWMEZAiYHinx3zwsadcDeFaIYZ4suTz8lHrb2Tcok0BkTuv0eATO6PrVt+0YPLremaclZQEpAjIzZMjT29BmL8wecUs7YJt++2ElNs1s5tPO/XO0P0NMQG8BsGZS0CKgBnTV0pVSPeFEH8h//9l96GXXhl0v2Z2M93cI68z+hvsw0OPP21fftFAOHMJSBGMnrfeZlHS2ubkWsD35oclAmk7FNYw8T6vv5teERu17NQroIScWwhIETDtf+c999lZXDeDyAi8bUW2ye16fxazf4yWctXfTzf9i9tUqVZDu92JjgKZT0CKYMDkRXZrEDeDyCiBuoMyM9TvN21jfycseSqYv0kOvGuC6HGLNutS6CwiIEXADme8JH4t/nJaUE6pKu/Z3Lrb9f5McItYEtJn/DzrHpWqUtPuEFHa1LdBy/Z26fSCn/ZftSZKyVwCUgQTl/4kJV94Nc31PtcCgXHbrkMC3p8mdTvHuEjMLrNcW1Oh2UNAigC3pWrdxpk2U8zLLhOWbAmY9KgSWASkCJhV/W7wRLm7+P2uRn2tsAsDb1e5XUtRAlIEwPsBles0uu6dHx55sqSMWbDRvhnmdh1FCVgRwIQlW+17AhlxiwiGb7ujmF1rE6i7RCuBQUCLgAVuw2atlNfLVrG7Ovg7ecbrk7xG2aTtd7Jg2z7XshXFIaBFALgxQcad4Q0tfnGdZdCppU5ZZsH8wutlqsg3/cfZHeV0cklJj4AXAZDVWfzLQekzbo6dWGL78xKPPC63F7tLit5xp90WhXdsy1StZX9TYPqaXfqyieI3OUIEyZkW9pv0DAqRtt2GyBddB0un/mNleMiqS2uD1PCVayNHikBRMhMVgeJ5VASK51ERKJ5HRaB4HhWB4nlUBIrnUREonkdFoHgeFYHieVQEiudRESieR0WgeB4VgeJ5VASK5wl4EbADM7/uOGruOhk5O0xxgZ93nbT053R/s2z5rkSZEPqTPd6tHDc4dsy89bLwZ3b0zp2/hhnQIuCNsl5jZ8sTJZ+zG9Ly43dKSthcjO0av+g6yP6MrFtbLvvtmHToNdLuhM3xbuW4wbH8eiY/f8veqeyY51Z+TiagRTB24Y9S7K7iru8TKykpWKiIjJy7NoWh0oP3GTfX/tZZRre25HeXm3/dXVbmwl/JCWgRNO/Q3Ta+20NR3GGLmeS/xMPfzdp3lQLX8aMngbyf6/US0CJo8OlXki9/AdeHorjDRgPJe2s2HeCXfwoUyHiHggjerFBNlu5UEWQrbJvi749YKElbzvQ2bk/yn3NiS/d23YfavZvczvMHyq5cq2FA/dBJZhHQImDjLLYqL1jkNjsisBOdkhLahh/yeOEfb8us9VGubTl5+c/2FzMLFb62tsyXP79NSrDFzfdDgwPiRw8zm4AWAcxYGy4tO/WU2h+3sj1RxffqK8mo1fgzadqui4yZvyHVPVcZDUbMCbNxVu3GtGUD17KS8279pvLhZ19L1xHTZGX4CdeyczoBLwJgn352lZ63JU7mbopVksHPUPHbC+ltNsb39ORLdhyWuZv9a0s2RubXRHPzRmY5QgSKkpWoCBTPoyJQPI+KQPE8KgLF86gIFM+jIlA8j4pA8TwqAsXzqAgUz6MiUDyPikDxPCoCxfOoCBTPoyJQPI+KQPE8KgLF86gIFM+jIlA8j4pA8TwqAsXzqAgUz5O6COaqCBRv4IigBSLYb0TQdrKOBIq36BV6VMr3ipDmY40IjpxIlE4zYq0IWkzaJyujc+ePMiiKL+1nJUiZHuHSZlKM5Pnj4kkZunSflOkeLpX7Rsns7Wdlfbz7iYqSG1gScUHqDI2Rt7uFS6/58ZLnv/85JWt+OyS1BkWaD3dLu5kH1CVSci108N/OOyhle4ZLtX4RsnBbQpIIzl84Id3mxEnp7rulXM8IaTNtv0zcdErm/HpWFuw6J4t2n1eUHMvCXeeNLZ+T4C2n5atZB6Rinwjb4XecHidHTiYmiQBiDx+TdlNirVv0VtfdJmiIlBqDo6XBqFj5KChOUXIsDUfHSc0h0VKxt/F2jG1j3wTE2+OOyr//dfKKCCDh+HGZGLZf6g2NskrhYEXJTdQ0bv+IZfsk5tAxI4Aku79KBIAyzpw7IdEHj0nYrkMydcMBCVq1T4JWKkrOZPK6A7Li14MSsf+YnDx7Qv71z5M+Nn9K/h+RCDQYO28aJAAAAABJRU5ErkJggg==;" parent="1" vertex="1">
          <mxGeometry x="270.42" y="1130" width="119.58" height="114" as="geometry" />
        </mxCell>
        <mxCell id="a-Nkdi_0TSclpbkDLBsH-68" style="edgeStyle=orthogonalEdgeStyle;rounded=0;orthogonalLoop=1;jettySize=auto;html=1;exitX=1;exitY=0.5;exitDx=0;exitDy=0;entryX=0;entryY=0.5;entryDx=0;entryDy=0;strokeColor=#CC0000;" parent="1" source="a-Nkdi_0TSclpbkDLBsH-30" target="a-Nkdi_0TSclpbkDLBsH-35" edge="1">
          <mxGeometry relative="1" as="geometry" />
        </mxCell>
        <mxCell id="a-Nkdi_0TSclpbkDLBsH-30" value="" style="shape=image;verticalLabelPosition=bottom;labelBackgroundColor=default;verticalAlign=top;aspect=fixed;imageAspect=0;image=data:image/png,iVBORw0KGgoAAAANSUhEUgAAAL8AAADACAYAAABVnrISAAAAAXNSR0IArs4c6QAAAARnQU1BAACxjwv8YQUAAAAJcEhZcwAAEnQAABJ0Ad5mH3gAADM8SURBVHhe7Z33m1tFsob9l93lsoEMtpclLmm95LDEJYNJBmwTbGyccxznnHPOYXLOUefI2QZ27/PUrbfbPcjykUajGc9Io/7hA4+kk/p8VV1VXVU97P9+C8TDoxDRTf7ffgkkONclJfXtsv10iyzY0yATNtTKd2s9PPIPP22qlaUHGmRPSYtUNrfL+Ytd8t9fI8h/Qb/YfrpZ/r2gSv70ZbH8z+izHh5DBg+MK5UvV9TIsapWuXo19jv5f7kWkxWHGuXhH8vkD5+dldtGF8uD35XJizMq5L2FVfLREg+P/MO/F1TKs1PLZfjYUrlNeY0QPDW5XPaWtsi16wIwrKq5Q/4+sdwQ/9EJZbL1VLO0B51y7kKXXLwEYh4eeQesmfj5Lmns6JAZ2+vl/nElhuNvzq2UhvYOYwIN+3pVjfxZTZ3HJpbJiZrW7inBw2OoAKIv2Nsgd39TLPd9WyLLDzYa82cY2v6PXxTLpE11ximIOtjDI9/BLPDKzEr538/PGvu/M+ySYTgDI8aXyqaTTfKr2v9RB3p4DAVM2VInd40plldnV5oI0DCmAbT/fnUECHdGHeThMRSw7ECj3Kt8f25ahZTUt8mw+8eWyCOe/B4FAMiPsn9heoWUNnjyexQQPPk9Chae/B4FC09+j4KFJ79HwcKT36Ng4cnvUbAYsuQnV4Pc7bP1bXL+ws2524OJ5q4OOVLZIjWt7TeN8ZUrMbPaSC3FfzK45/B8lxTrM/Kciem5twJk/Na0tMu+0lZp6uzI6P5yGUOW/PvLWmTE+BKTmr27uEV+/aV3xNh0oln++l2pyXO6f2ypDB+XHvfoIPLbx3TsmpUYieeClHN21cvXq2sM4Yv225XF79fXSlvQKR8vrZZp2+oldq5TShvb5anJZXrNEtml9w3hEs+VjN0q4A/9UKr3WmIIyWc7zjTLN6tqZMzKnsF1mzo7u4nM/y9fjsmlCJyua5PHJ5aZGg+KQzrjnZG/4/ie7jsXMCTJ/5sS/bt1tSY79Y15lUrGzl5r/o3Hm4zwQOzJW+pk3u6GtPhKiQShH/mx9Cbyky8+e2e9jFSCrjnaKIv2WvJ/q8LA5/d8UyJk08aUTHuU8H/7vlR/W2q0eU/vIIr8P+v9krBF3joCGYXbvzgrfxh9Vp6YVCZnlNTuOqSvIxCMXxTI9r1Nz801P19eHfmbnzbV6czWmvMCkNfkR8NsO90skzfXysSNv4MXwMshX5uXO35tzQ3fJ2Lq1jo5XtV6UxKfI/9fviqWUVPK5XkdoHT4+09WI0aR/78KNPrHRdWyVsk/X4UF8kOeCRvr5B96fgaf8eaFIAxgytZ6WaKzxNLr2KD31KImU6K5kY78r82plPV6zK6zLTcBoeNdJ5O/XE2uv6rwJVc/9QZ3fV0s8/fUm/fj7jMXkdfkx979RrXnHUpQXnYi0Gq8CAQg+btEQLKFexuMrZ14bkf+RyeUdvsO6bBkf4Mxk6LIX6WEmr69Xr5dUyPfqanz6uwKMys9o6Qfo/f/xYoamaVkrG7pUIGsk9s/Lzb3jTDxOwfMoQNqzjGzHSxvlYlqerylM9udY4qNkH62zArXOBV2nu2LFdVGk2N2JeNwRas8qCRPRX54gGlTdKChGwgM4z1XhTfx82SsOtwoZSrsv+Y4f/Ke/GPUXIAkz/xcJu8vrpKPlmaGD/S3d39dIneqllqgWiqZ/FtONqu/oLa8CsczP5fLs9PSA81/t57rSSUT2jnxXNjgEA1zA1I7DenMEu6fa6GlPy2qMZ+PVMHjnA+rVud7yPz63Eo5UW2Jig9xt96bE3Ij6IpP1H/4UknP793n6ZCK/I9PLFUCtxnTBbMNrD/WZOpfmenKGtrlqo6Z+y4Ruc4bhyFDfirzkwmcDrzUf04tv4n8RIY6w045rDYr2hqzpDdAg+PUdqn97s5Z29Yui/c1qGOrAqeE/dN1IUCw/qWmyaTNdUZjbjnVLC/MqDDfbdZ/Q6STNa1GoBCO1lhn9/3v09kIh5nj77iu+Tk/WneszjCQ/4FxJfKcvtiXZlaY8/IbhA27nZpsPsf0qtb7daZUIvmZZTC7GAcA6ZmVCCJMUJPRfZ6Mo2pGcu/uXnMVQ478RBuo06xvjwYEwr5PRX6c0fcWVcnb8yv7hE/VBMHpYwxxtiHVh0uqDHEwVSAsRKJ24jMl4DadHWgcAGHRyAv3NJhn2afvAVPqZSVqhwpl8hiks/k/1FmgRDU0n2N6Qfrh40tlyb5GqWvrMJ8TbUokaiL516kJhdAlzxY9AQGgZtadM1cx5Mh/sLzFOJAP6UuLAsRGAFKRv+hgo5oe1YaofQH3dfy6ibKruNlc644xJTJnd73M3WUd3rdUSOiIgTbGlkZgsO0hEPcZO9dlKurwPUbrd4E+b/IYJJMfDU60xZBfTbsztW1S19phTBhDfhUuBAth4PN6FQLG0UXDEsmPiXVaj+ca3A/nxE/ZerrZCHYqcB+5bu+DIUf+nWebjTmB3cw0j4YF/AabGBIS10bbRZEfXNZ/H1CHcrE6sQvVXOktKprU2VPhcuebuaNeCVwqP6iZgjlUpIOOBsZ0CM93ykoVuOPVrca34D4hGYSubmnXe2sw9z9pc21kTbUjPz5Ckd4vjjemDOdI1shRQNjoZuCev0RJgOOOc81iG5Eq7u1J/ZtzbjzRZNYjcH4fV57MVWG+cCk/a72HLPmxaY9Vtan93WGwaK9qW/08E/LH4l0mAsPLxul8ZVaFqfMET04ql9tVU3MNyt+I3PA59jMmCwJGNwAEKPE+N6kDDWkwvSaoZv5yJTNDa/fiW5dek0Un7HU09gh1LHFqP9f74HqrjzTecI8IF2YQIVBmBvwEBP7dhZWKKvNvNDjOOPY+/4fozDKYWs9Pt59z/2uONJkIEOc9XtNmBPXZqRVm3Cj0ZlbiWJ6R+8cn+m6djrue60cVYP7m3hxyaTU9HYYs+d9Uk4KX4n5LBzrI2Vvyf6wmDFpuvmpg8NnyGqOJMSFwcN3n2LmsB0DCZPJDIux5nN5PiqrMjPSgauspW+uMUPI5kRRCprVqhpxUAuIb0FQJjctCW5nOJo5UmDbMSv9Wkv9Nz8N9gnfVNGFWeWe+JT/Od117u7SpmYfT/bgKMsTmpRt7Xz/H5sc+d+fGycU0wseoU6LjvCMsCDXPx3gDZgauQZTtK/173Npag/HrmN3yYybw5O+B/BDwjbmVxj4H2LxoTwYNTeg+/9ecChmhdneU5mfNAFMC7ck5MTcgDvfNZwA/BUcdEuKPvLOgSv6sQnK7/h4fAnPJnQ9ThJg+mpfzcM0H9L3xAqvUVHpTHWo+p+EYtj3mE4IFiRkDhLW80X7O7JH4njeeaJb79FxvL6g0OUj4R5Ce8yWbTFG4TZ14nGl3vlzGkCX/SzPL5VRtqzSohgN8f68+W2/JP0edU5xFNCDApsZZfVGJT6s7Er34HMcQpxCS3Kz5281nmCN/1Htl1mCmYHGNhSjaZ2CWoIndMavVFOHFQKi1R5uMQLjvAO8HZ3i5zihof+fwspKMyYeArtTvSKlIJqgD94r5QnjXnZeVWcKxX66sNgLHdSEGMwKRJ4BQ8SxEqz5QweRv9x05VZcve81/y5GO/FEvG2RCfs5LPg8LQBA1EcPVvoY0aGVIl/w92Kz2PQtAifeKVkc4ICX2O2FMhIJZAyHDsb106fdjcLgxd1i9ZdZK9S5uiPboNSAg4UkS0Daoc8qMA5mfUvPknypgDpg/XDeZ/OP0b8wyVppr1VzjvpOBMkA4eBaS9fg78XuEMMwwK3UwMeTIjwYmS/JttXujYCMuXSlDncCFGOeZsOSN+HSZtdkxIX7YUGuc0uTf7FPtl0h+SLC3pNmQFMKgNTmOBqqc6zV1mOuVNM7uZoUY0wVHF4HFKcVviCJTIvkxcWbrefFJELTtqgggP75AufoMOK8OpC78RX+XSH7e98vq3HNPkzfXyejl1TcIjAMmGmYW/g0rvvyd+D2LYeQv+dyeW4go8kM67FhyWqIAsXmuX9JofuxjksLQ7KQlJAJ7GM3PNZkFkr8H2OhEdtz5IDX+x/Yz1lzgWEyG/1WYe1dTyhEFU4NngoA4qM9MKTMZmCyE4Zw6AXFIJD/RI2z1P+rvl6qZdbiq1ZCfdI7Wrt/vB0zfXmeEJJH82Oo42jwDUSQW64gkJQOHmPvD1+Ac/J34Pcez0EaD2MRr5hqGHPmjfufA79Gqnar5WcDBPCAfZ8m+hhs0NSYJkY7K5puxSEnhbH7qBKJ+w9SfWD+Axq5Wzf3z1jojUMmmGPePUGDefLTEmhMQaq8S+0BZqzG/cHw/LapSJ9QKAOfnvMTdHxhryU/WJ2TnGsX6Msm/52/O9ao65AiGA6vGnDOR/Cy+ke9ECJQCGcYToUwGymW8HudCnR0qlMm/wazEMXdjkIsoKPJvPtVkshUTiYfWJI/HkXX6tjozbTOVR4FEM7Q2tjhrAFG/Aa/rzEH+DWM4YYNqWdWUzBik+z4xqdw4u6yGEkNHU47SWYhVXM7LPeLwXlESQfRV6iPwG7TsnJ31xpk+VGHz/iEwGviTomoT2oToNF7FtHPkx3ziutj+DowZefmO/BCVe+F3X62sMWObPH4OLLb9qCYf5yAvKdFnyCfkNfnZM4DpFRKi9dxCTSoQtsPBfHpyuQGLUxAG58xpKaZ7fAZs5r7A7fzBGGKOvK+fIagQmftw9juLVSSvkVlJdIp0ZLJAE5+F35L0BjnpKfkfPSepDpgzxONJx+AahCYxZzj+12uBlKqdjyCj6Yn/E8Z0YJENp5jVXZeHQ+kkaxo79Xg0t7t+MljRnbGjzqSL4LvkQx5PFPKa/GhrTAyIg00d5RAmgu9rW9tNjBsQlUgOIbIBB8SCCH0BmtMRiPvE5iaak84U4F7iKtDJ9wR4F5QNupwZZgTqBhr0+Y3mvv7sbjMG92/MFxbOksmMABIcaNRzUB/gPmdWwWxJ9i0Swb0w7ggcEaZEEy+fkNfk9/DoCzz5PQoWnvweBQtPfo+ChSe/R8HCk9+jYOHJ71Gw8OT3KFh48nsULDz5PQoWnvweBYtI8o8cXyoLdjfIyet9Wzw8hiLITCWL9QbyU95GmRvVSvSb9/AYinCFSTeQPzHf3cNjqOMG8mMHjVtTKysONsqqQx4eQxNUzVGO6R1ej4KDj/Z4FCw8+T0KFp78HgULT36PgoUnv0fBwpPfo2Dhye9RsPDk9yhYePJ7FCw8+T0KFp78HgULT36PgoUnv0fBwpPfo2Dhye9RsPDkzxD09v8N6JjQI/8XxbVr9LNns4ZA4hcDiZ0PpONcIK1hIE2xQGo6AilrDeRUUyBH6gLZXx3KjvJQNpWEsvpMIEUnQllwJJCZh0L5eZ/F9AOhzNG/FxwJZcnxmKw4Fcoa/e3G4lC2lgWysyKUvVWBHKqJydnmQOo7Q3M9rhtcCOSc3suly4FcvUq/f3uv3DP3n67nfiHCkz8CPPdFJVCnEqqhyxL4eENgSLdNCbgB8p6GnErcg4FM2B3KmK2hfLg+kNdXhvLsklAenx/Kw3NCeUjxt9mhPKj46yyLkTNDGaEYrnhghsX90xUz4orfPxs+IzC/4/cG148HD84KzLkfm2ev98aqQD7ZGMq4HaFM3RfIomOBrDqlQlMSyI6KQA5UqxDqM1S0BdKogsmzXdBndJtdFCIKnvzslHLpSii1qqUP1oSySkk9/UAg3+8K5MvNoby/1hL6+aWhPLUwMGSDdCOUgBD0PiXtvdNCuUdx99RQ7poSyh2Kv/w8cOB6d+m1775+H9wTwoSwIIB/V0F8ZlEoLxYhJKF8sD6UL7foM+5UQdkfytITKiDlgRTrTMLswQwXNVZDDQVFfqZ+Xm51OyZIIEuPq6bcHsi/14TykhLjyQVx+atq6HuVOI7Id14HBLsjgnj5AO7b3H/C8/BsTliYXR6bF8izi0N5U4Xj2+2hLNax2aczXVV7zIwZJlTUmOYzhiT5sW25d+zxLrXDz6jNvep0XMarSfD26lCeUzPh0bn2pUOAKMIUMhiTETMDeWRuIP9MEIjlJwM5qaZTRzw0Y8sY57MfMWTIj1bHTm8JAjndiHMYyk97Q2OyYH9jJ2MOYB7carMETct1MIcwPzCPEDRns+MDYDo9ogKIED6uphSmiYH+G9OKzxN9BuMrKJyfwLNAUrR41D30B9xswbNwPa7PPTOmU9Q5x/85q4qlRR3uSyoMvIOod5OryHvyE3VpUAduu9qs09R+/WxTKC8vU/IogSAeLy7qxWYLyIDz+YQSlRnkXytCeXdtKJ/qdb/ZFsiP6itM2x/I7EOBLDgayBJ1PInqrFCtufJ0YKI8684Gsr44kE3qjBLB2V4eyi51SsFOxTb9e0spUSH7u7X6+9V67Ep1YNG+nG+xnnfeYXW41T+ZtCfQWU19FLXjP1R7/i2d3V7SMcDOR4AQwqhnyRaYTAggQvvK8rh8rr4Rjv+uShvpyhefIS/Jz1RLaPFYPdGWUN5ZExjtTqQEW7232hBCQxA0LITB/meqJ3oyVqf7yarl5h3BdFKiKlmJnBD9IdRYof5DbVcozTrjdJ4PTagRk+DK1UCuqp0Mrum/bwCfKdhylGhLKmBnu98mH2/Orf++ote6qNcML4TSrsQjklNtQqyhnG4K5XBtILtVoNarACGI01UwcXQ/V2F9R4XkleWhjFLT5hEVEpRFb2ZFZjjGmjFHGJ5coP6TKoIl6i+U6NgQTcrlXdjzivyQ/ry+aDQM2uaZRTY02JMj6hw+XhQOHsc8rg7em6sC+W6nkuJ4zMwcEKW0hchPqOZTaMKBgQrZ+UsxJVmohIzJfyLuK9fx319VyFTQriIoSsj4xdCsSbTGbSi3vE2FWRXJnqrQzC4/7Q7lPSXxE0pmSM2YuShWT2MNmBmfXxqXH/U8xSqEKIJc9A3ygvyO9EfrLFmfXGAjMum0FC8MOxlthBn03tpAftBjMTlOq52KhmRhiBkEexVtyq7lTNm5rK36GwgGtjozDWPArMWYdJ6LSbOOUWkL5lmoplUoH6lJ9aqaeU8ttGOLxo8ae4CiQcmMWhw35ugZnYVYDMwlIch58vNi6joDmXvY2vJoolSk53MWk95Qhww7GPt4t84SRHsgOy8VLZQPvkyugPHHvMKca1LTrliFYY+OKSvPLO69pmYTmj7VjMA7GaHfswhXdCKQdp1tckUAcpr8aKPS1kC+3qqaRkkdZcvzGRGR15TwOJusaLIia4iuWgy7mefIxWk338AYMpaMKUokvBBIiZqJpF+M3YGTHZhoVJRyIvBAFItgAP5RLiignCZ/o9qjrLIyfSYPJiD89pl+T4SkttM6m7kwqIUGzMVAfYgKVTqYSG+qI43ZGfXOWD/4YZf1OaLONZDIWfLjmKEl0PjJUyra/u9q9y88Zs0ZIiBesw8+nIlUpQ70lH3WN7t5tg6MaUrkDF8r6jwDhZwl/9nmUP655ObBY0r9xyKbg8PqLQMedbzH4AHeYNqQnUoINfH9uXf47rrQZL0O5vvLWfKzKEREIXngiMf/uNNmJXptn7uA1CXqHLMaTJg0+T0yK+A449dFHT8QyFnyT90fN5Gd5EEjxPnTnkDOq0MbdZxH7qBSzZ83VweRq+ysPG8sts5z1LEDgZwl/+S90Y4uU+bTCwNZfyYm51QAvPbPPaD128JA5h4KDMmjwqB8vsGTPxqpyA+YRingYBmdvJ7BnDo9bgScIdQ8WR1eFsOiwtPAkz8N0pEfMKgkr7EGQHIYOfrE9gfzngsVEJjgA6vBa8+G8oE6s/hrqYgPPPnToCfyA6ZTHOC/LwjknTUscoWyTge/SgWBpfqo83r0HwhHk9K87KRNAHx9JWZOkDbtwcGTPw0yIX8i0DIIAoNPyeHYbaGpYT3TaMNuLrUBE8mHRzMHYwVBL1+JmcxR8n1Iglt6wma9jlpMSklgFrUySXpz8ORPg3QOL6m36aZUwOrvw3PxDWyZIpVIcw6T/mDTfLFLWSCjRI+FGe84W6K76rf6rkBKmmMmfXvN6UBmHFATUxXK22sC+YcS/m9K3p40PMoolVB48qdBKvJDarILv9xii8qpLkonCAgLLwmBYbUYPwFHjCS5TzaEMmEPnQ5sOxHqek/rTIHZROsRkrBYhieqBCl4UfkoJJAaM5CWJsyAkJtnI1hAN4cTDaQzk/NP3UJoMmex2xnfJxZYJULyGmNP2JIxjRprwHes4DK+36qwPKfniIrze/KnQSryD9fPaMuB1qYXDv+mZQiDme6lJAOBQSjQTqwnkBz3tArFK0XqP6wO5WMVjK822xTqn/Ve5hyyxSBUVFF5RaeHU42hlOsMUtcZmtBeiJBcDQfUrMKMI00gpiZJi95DbSfJgKESWoVZ73FLqW1hsuhoKLP0GSbps4zbYeshTNXXKro62FSEkUpalARj0hPJk8FYkv//xRabTXtSr1/VFsqnahpFzRCe/GmQjvyU8VHJhBbmxSMIh+towxGYyqSH1O5nuoXgvbFDE8FxEIDz3KfX5LpoP7TaY6oJERSKu19QDffKCtsShIqy91VjfroxkG9U603cHTeVU5Q0zj+iwnNCiaFEXHvGzjTUwJJyvb/GCvJh09iKcsaYbCtlESg0JgdkomyRc8w6aBcAf9wVl6+2qpAquWivQmE+q6k8/wuqbbHFn1JCUwv8oM6OI/Te758RdHemyHZcAMcytvdNt0qHa1OyyQzCjHJFFQDvJlCB/GJT7pP/xellUlbXLMNGjD0jj+YJ+RN/TxEK9juamB40kOTLzXF5VclArSlTdl9eeG/gBIdr2sZTNlXjIRUcHHJXtE7pJdoSM+zpRYERqCcVT8y3ZZmkAJMbk1jEzrmYqdDOPfk9/QmuhQAxQ1Di+Q3tTVQgaeRFjg7FRskzXr6Q//3J26V6yxQZ9vC3x5T8pXlHfgdeAA4sJkhLGJqyxM069ZNl+JGaMtiivEAI9YASM2rpvZCB4DLbIWQQFIFkRvlCzSTqmCE7PlGbangIn84Pyhfyfz5hudTPe1mGDR97Ni81fxQoR3TCQDF1Yyxm+s4wM1Crijnyvdr0CMULavdiLkU5Z0MdkP3ReYGZJUcrWSfspnIuMEUqJJ8VN4fGnMFhhqyZ+jR5o/kn7VDNPy2/bP6o4zIBmopB52VSjcQ6AKuThEA3qy1OSPTrrYG8tty2J8TWxxG8R1+i8SPySEC4V2Y3bH3MJSJe1DW/tVqdeXV8CRjge9AJg0Q0NHpcx8Q1pYoav0yRL+TPS4c36ri+gmdmOid6gy1L/S/dlemhs/IUjp3t5Un9KnFvHM6314RGaxIapNYAs4oGVK7xVHfTKRUi7GZK/VzzKZ4R3yARfMZ37ncck9jwinMilFwDf4G4+wtFN/YQIsz4055QZqjvQyiX4pEtZaEcUueaOlzqoingv3TZFrBHjUVf4cmfJQaL/MlgliCcyOowy/mUSjJbdJ6zrcGJNCEkaM1yJRX9ak41BnKolkZUVmggHn1BFx4NZL7OKswssw7ZduRT9ofmWWkXQocE2pRP089ZVJqtv8H8oI05BKYAnOjP5lJy4e1iHZ0oyJvH0a9UWxxSs0aBBu9ScnOvCDNRMcy/gXynnvxZIlfI3xPwKxCQRKBJERgWlhAaTAhMLISH9h0AQgKEiUU0Fp+A+Tvhe/d7juUcnAsSQxqXqnHD9ZPubzDhyZ8l+oP8FFZXdxArtwtjrGISDr1V07zHjfDkzxJ9JT+tAHepaeBWf4fPDEwsnX4+LOmjNaOO8+g/ePJnib6SH5uXhq1EOdyxRD5wQpkFWAeIOs6j/+DJnyX6Sn4cP5b3k4/nnNQAE+mIOs6j/+DJnyVSkZ/P5h0Oe+z5EjuvJs8G0gDi3cei+UkbWKk+AE5k1HEe/QdW2MnAjVpF9+RPg1TkZyA/3GCzF9M5rtz7ifpAxm5jd5FAnlgQl9dWhDL/SGjCk97pvbUg0rVbfa5Ri6MXBT350yAV+QELPbNU+7MQlY7EDCwpDaQeH6snz4fU34GNdRciCCYQVGARMNU79ORPg3TkJ8WAIgty7EmySmf/u7g7KKTW44MF1jWo6/1hF3t6pU4F8eRPg3TkBwwqA0juPNv40CgVjeMJPvBgzCExNv6ykzQTuN5jNQXxgSd/GvREfgcGmPyW73fGzdY7ZWrasGJaKHvJDhYgvKuhIJ1j+cnQpD2PnBU3adFR7yoRnvxpkCn5HSjuINGL3HOSztjcDceW3BZSAvys0DdgPkJUWzJpzc0NxaF8tcVWj2HiRIU0U8GTPw16S34HZgIyIp9eZMNsJI5RNniw1nYFHqobKt8qkEdEU2C6XeyrCu2OLHso2bRt4lN1Z+gJnvxp0JPDm8mAo4lICSb9l21DEQayJinSOFhjszB5sbxg8oAKNfzpTBiIyCzZHg+N+Ug9MfXDbCxH+xdaxtPJgdqGTIp+UESp7H5P/jRIRf57psVNKeLLOtWS557OqYoCv+e8RIvYu2vMNpufj6O2vSw0W4wypbeEMdMJeqjlADnnNLwQM0U8hCTZ6I9Nu5cej8nUfXRgCOVfOjYoDQp4eqvZGWMK/TkHi4pRtcae/GmQivykN5ALTzkiue2fbbS2Pp+j6XstDAr8BbqOUUxO5wPaedC6ZMzW0Gg9curpacNs4aqd6OeDCWXSkBWsGCemHLPIA3i5ACFyYFwdXBg2EYnfJx7HhtvufJyb67iUaZcubdKj9b64N/rzQHDy/feqyUJdAZtWsw8vfY9I+sNHorEXY0iE5u5pQeQ4pQPktnW/tviezhW0H6cjxYfr4z69obdIR35ye65cYW9cOouFJtRJAchHG2yrQorT+1KYjgDxQnlp9ygZRs4MTLcFWpVQsUV7EnY7Z9fzibsDoy3ZhYSCEzbVYLtTiubZ25c9g/fSnkRNCITnUK3VtJQN0uqDSAmbRbOhNfFxilNO6me0BOR3R/T3BxUH9Nh9eg5qanHmKT2kUGatmnDMWgtNXx7MOrsL/NjttjcPm0LjkFJh9ujcQMcvUILb8cnUfEwFlAZNwF5ZrrPFZjsG+AUIHIKJgvC5PVmgJ/K7hS2mcbQgmq66nfZ6tnU5zZMo7WP6RStFTb3Zwmg6faGu5JB7osyQa9GehMjHY6pJqZV9ZpFNr8BepnsZ9/QSZtsyWzCOaYD2xQQD/Js0DAjL717U3yPQtGRH+P5hWpzoLKXnxyyBRN1tTRTci2k8pchmJkyHO6fG5R49L5mx3CMNvdge6qgKKu0NmXWYodw79IltWSJT8icCQXBmA1M+XcuITkxU0+UjneKfW2o7NES9jFsNNGwk0L7JiPqdIuq8txr36szHrPeq0e62MRghTso1qTRjrBnzqDCyJ3+WyIb8UUATkbtf34kpQfs+ZgZbgP7eurgxB9CcRIXQ5MwS3SaBIvn6QwU82++mnZ0tRugYYDIyQ9HHFBOKaA9bvWKStQShaQHzn19jkWOdDE/+LNFf5E8EW+3zTDiJFHfXdNjoDvYzAsE1cXLpYUlXMkwUmjYxzWNWsH5g4tp5JBTGRNN7ZtxMq0XV4gg8EbO3VweG5HR6QKOzSos/gQ+CsmCBkHFmzKI0e0/w5M8St4L8UXChP6IlOGit6qwhFDigR3SmQOutPhXIvMN6T3sCGbcjlM/0hb67NjCtQp5bYpu88jKx+93sAXjpd021XeHuBEpE4uN3TYmbf7vZJRnuu99/f/3f5nyc1/YiBa4fD/04EVKEFaFlu/8P1llTBcecjnV0gVinDjL9QXG4yXKl6IfoFURn9bY/37knf5YYKPJHwWWCsvBjQox6LaIXhBQhCLYubUvK20ITjdlWTvfmUBaroz1LhWSaaUeiptWuUMZtt6E/okMIzeiNgelc/MmGwIRTCTe+v1ZNsOv4QP/GP+G7T8xv7XFEbr7Sc3y7jWZT6sfoubkGUa65h3VM9NpEfhDW43RI7rDVapgp3DORMZ6BZ+G9urBqNho9U3jyZ4n+Ir9zgh2iftOfQHAYN3aFJ+5/7mJocmHalYgIDJmPTTq7AHKPGrpCo31rlaz8n9BtY5ftvcNvsLNb9Li2eGjITFSL1iYQmijXQDxTtvDkzxL9QX4GtkUJRNc1YurlrTGzKDWYz1VI8OTPEn0lP/fOflxEdYifE1dncWqpOrYswviU51sPyE/WJ338re/zO1gcY5HOkz8CfSV/cCFmbGVCmM6xxFnEIWTHRhzcqOM8+g/nLtkVb+qoafybCDpBk6IymBwbsuSvUfuZKEzy8URjyNeh5XbUcR79B7R6YovGZOCA30qHuyfkHfkJ65HHQqw+6jgHnEvMHcKBicdja7K9D6G9qOM8Cgd5R35yaliIgtxEVqKOBcwMm9WmJA+dVUtWL5kJCBMWNw+uremRG8g78pPjQvrtmjOhybdPN20SlyfSQ/ydVF42nmhRofHE9wB5R35w55S4PFdkt9lkEWcw7UaP/EVekh8QvXl2aSiLjtr6UlZdWY31gnAzWsPQVKmhLNhRnRqCUh0zVoFZaMP5Z/GsezU4YSU4nWmZ78hb8gNCmGztSSIaQsBOJfgCJorg4/jdONtsC86pAaAm4JVlNnHv/fW2CIW9uSbtDWTGIbtHF8U4FOGQp08VGIX/rI2QDMjqMuYkwvGf68JhoNfJN8WT1+R3YAWRjEUKPkg826oajtrUzvNWi+VyCsBAAPJTHIOySBw3/iYa1l2UM9Nmr1KMg1/FmoirXiMXiQox8ojYhZ4cIjbNJgOUBLlqFZCGrphpIUk6R3cKho7/bxmmQA80hgT5E8ELfWhO3IQ5OQcvioa1ZC4O5vMMJlKRvzcwi4QKFI0TGMLGVJbZ9OhQPtaZZOz2UKbsY8/eUJadoPbZll1SWMS+YQ1dtmMG8f/Bfh95SX5eRNTnibArunGzKEYJIdM7m8JRY1reautMmcaxc022oz7rUJ0h+oP8mcKNO6nWbjYh1Zs+SpQ+YqJ+vTWUmQdD46sNZppJ3pGfFIWnFsaN/Yr2yUQQHO6fTk2t7UHzlb4AltjnMI1fz3EnLNqgDiCaiXpUbFucaIQiF2xa7oV76i1hBpL8mcIntqVBKvI/oIRnWqUckTx5Wo1Qhnj3tHjGgsDvmL4p3UMrYeOyiwuF4mxlRGXTLNVM5AAdrAlNRwVy9+s6Q5MlSn0wpZFEmC5eCZWQse7ZA/v2VgkJURk6QnA/pEhnmh6QjvyMA0EDKrwYB3wnV9KJorlVtcOe/GmQivwutwdnisorKpIWHLVtOnDOHpiRWaPUVOBYCEFbDlIp6GVDgyvs2vfWBaYoZeIehCOQhUd0AE/amWNjSSA7ytWsqqbdiO0rVNISquMdSnW73UyDDgfk6WNy4RiSn+8EiSSw89dB4UlUtIp8fzJTny+ic4JVANjQPREoHfkfmm2rvBD0FacCma9jyd/jd4QyelNgKtboKPF8ke0aQXeKe3UG7c2MGwVP/jToifyJiW0MYOwCmzKzkqt2pRIE84YZoVuD9fFlJcIJSHKkZAT2rZKJ65o+P0vi8tJyyh0DeWtVIO8pkajSGr0pbppGfavOISSeuDtunpdWiguPqbB0RDuDCBAzEyQGXGf0JkgUmkQ+1zokeTZIR36iOnur7Bhi3nE8MwqFOKygx87HjNBSwE7jK1bW2UR74p5AvtnOs1gBeW1lIM+q8iGFhHRlUkpGzkrdKcOTPw16Q/5EENpEG7JDOVqZXc0/3mjNI6Z1tPmtnM77Cpxziup7In/iMQgBMwKzEc2xMM0glROCTMgP6ZOvlwqcl/Nj9mGKMSMR7qSkk13n6da2UmcRiuJxdKMUjyd/GmRLfgecQpxDTCM0F8lsFE9Q3ILDSzMoZgdsXYq/EQq01GALRTbkBxCMmWeUat+vt9kFP8iJ+dTf5E8FrsXsAaFRQgjEmzrjUbyffF1P/jToK/mj0K2t1N7GFseZXacvYO6R0Gyj84nOELZ3pTVbuFYUYW4lsiW/A74KHakZP2c+DRT5k8HKMPF/T/5e4laQPxV4TpxMN42fbbJ5MDSopfsCnRRIB3hRnd5ROltAGFp1ExmhRSCzBqSzPTB/b0vigFbuhj5DOiB4vSE/x/A390HDWdqUoPWx/926hSd/NDz5e8Cvv4Sm8AW7FhJBLKI6vDhaIVJYM+OgbSPC8v/4nXGzCyHRJxpCYYu/owRgxRnHl1QBcmsS+3A+tzRuND7AIaZnUFQs35HfOfCMDzY1TicFOuw4SVpBNg5vIvlJSXArsJmEUlPBkz9L5Ar5o4Bty9hwD4RcmTEQEPyLrvO2RJJwJo43BCDPiNVMksTwPVhMA6cbbUdmwqJ0ZQZ8j9aOIh3kf3etJQ4zBI1iSUDjOpA11Qp1b8lPZIcOdgghC37Z5kd58meJ/iI/Tm+L2vgQpOs87QpzM8kqE9DDhxXphcdoTGXXCDIxV3pLfhbS2FSCWel7FbDNpXZLp8sqBL2ZCTz5s0RfyU8zVbILSazCZv+X2uw/7mJDalZl+zadDxZ4HwgzqcRR36dCNuRn5ZvvMa/waTC32M4JQjPTZZJi4cmfJfpK/guXYyZ5iv6VvECO5eXTapvNInBwo44biugL+RPBot7rKwOZfiCU3ZWhCSEbYUwhCJ78WaKv5MfMId3BEb/7+JnkBllbNuq4oYj+Ir8D72WUji1NcMnrpwosKh3Dkz9LpCM/qck4YVHHOVCeR7ybUGDi8SOU/NP2W3s56rihiP4kP+PJGD6/lAa8dpskWkB68vcjUpH/Pp16CSvG1e6MOs6B3JQZB+yuIqzcEh4kIev1FexvFZpwXtRxQxH9QX7Gb8SswCS4MXMSqTK5REr6VP6TJ3+WIG05ivy8wBf0BZDERgJW1LEOtCykdTipz7QunLg7ZjZ2y9eOD9jXhFCNw6nvJtNnyJb8Zi1hut3MggQ6ku6oxupp3B08+bPEqlO2njR50ACOFxVBRG4gRNSU64B5RC0vKcTxi3Znlqjf5QOaAlvLwIzGTo2Z1ij3lvyUHT650Jo2P+ssu0+/R+jws3yocwDAfrfkrUe9MEA6AQLAlkIQO59JnSncCi+hRzbXI5UBAjFWzAb9tcjFohxZmSy+JaZJ9Bae/FkCjTb7UJBS+wNs+cfm2tYbzAI4sUzJ2b6sXEdybg/PTzozZiBdFTBJcD4TiQx6S37eO6RMN6NmAk/+PoBwJZVTJG0lD14isE1xbL/ZGsq6MzEpbrJpBgwsgpCP9n0UohLbusdA8fQCNYv2UqRvx84Rq7fk7y948vcBDAw5MTSXJYuSiEPyICaCQSbTkhc9TmcDNl9z+SnkvrCND8/UV402WEhHfgcqy0YtDk1PfHKJILUnfzRymvwAzd0cC6TohK0lJcacvHAVBX6DSUAWJdEe+shQZcTmyXR1w5al8PxWvPRbhbSaXz9zgk92KY272NOLdziQ5Od6KBkCEcXNMV/M0h8gqYqMx0k6rRN6603bEmYMwqakOrDB8ofr7HlWnoqZAniW6dvjoREI0h5+uRYaMmS62fJAIYr82P0PzgpMejTdqJkp4xeUhAmzW1/Jb/Yv1vPxG4jdXeOrTjaru3SSIBpU046THMqO8pjZkeWnPYE8tVDJH3FdT/4sQLjtqA4w3QVeKIqbeHTU4GYKupA9okJBgTl9fFacipt8/UO1oUntZermxXaej5mXfeWqnS2ML5EIvbdb7Vs48iPM96jwUyzOXrvLlGgk8aUy53oiP6u0EPratZghNenZpGXTaaK2wzrSpxp1TGqoZbDJgouP2TQRtkdlM2tMrREzM++c4cmfJXjJEBF7nlQH9qulqAOTiBAo5Mj0JSTDrGTqeajtfUZfKBvZsT/umC2hmS0oGiG7cUeFXSk+3mhnpErVejiZaEEiLmy7g59BBimEMtB/Yw44ENGCdJZ4vyNVxiQFNYR3KYSZvMc6toR502ltkI78mIaTVEMvV7OSJrXsIUz07LONtgiH40gTcTvRj5xpN8DOdNZNBU/+fgCDh21L1wJ2GMe+xzdAo7lODVGD3xdgctGaA81LUUl31+N1diWUdnwQ6Ccl6FTVjjMOhDL7kG35Me9oYFZKKRYhQY9eOaxC0xkZjYpQtSiho8K1OO5by0LT9xLB6o8VXmMS6vP0ZfbMBp78/QhmA7QpBEELY8dO3UfpoNXiI2fZ/pFmVhiAF801sMfRksxGpr+PAoEkOY/ZZaSCdQy6R6CBAYJLdVfU2PMZM0Mq8yYV0pF/oMB4cH1qnO+eGhjltKnEhqOj7nkgMGTIHwU044XL7MGFc8teXmozq4amVvaRuYFJb46KRAwm0nVvyBYDSf47aVI7LZAHEGwVZjrC0cQKnwBz7Q0d/w90hqSV/IkUQj5QGNLkTwZak5mhSmcGzCQcxQk0tdoQyqsrrN9AuJDIEJoare0yQiEOwJfI1p/IBLlAfqelAc/OGLhZ7L7pcTM+xi9SHwCzj9kVv4jkQVrAYOLRnpxOcjQApjaZlAnjE6kjHao/RJi5txVp/Y2CIn8UcC5JiyCiQcbnerVDCRlip/+w0xZsvK8vlhdMTetT6viZRlcqJBAAMyZRUDIlWCoMFPkRYCJd3DfmGKYYkTMWE3nGF4r0mVcG8s4aykDtxtETd1v/hY4VK9VP2V6u96rErmy3u2OmK6LPRRQ8+aNA9ITIDFEbNBWFMRUqHOSw05KPKAtpv0R95h8JTeNa0jDoBEcyHvbsI3No6mobu2LLIywAG5+IyQgDKsswv+IqRFajvqwkTWXzZwvIz0rr3yC3OpoIL01n31Byc9845UXqgG8qjhlNTXsWukugres6Y7Yztc6YdmHQOqn5RPJU8OTvBUwsX1864OUDBAUyYFIRsiR8Gb9o61vLWqzAnKgP5ZASCid8Z4VtiEXqBX7I0hOh6TI9V00F2qIvV1MM86A/x557WX82ZtYvylpDQ2RI7EKsPAPX43nc893qNYtcgCe/R8HCk9+jYOHJ71Gw8OT3KFh48nsULDz5PQoWnvweBQtPfo+ChSe/R8HCk9+jYOHJ71Gw8OT3KFh48nsULG4iP388quTf58nvMcQB+e9Vvj83rUJK6pX8w8eVyvDxpbLxRJP8ei1/N2/z8OgJkzfXyZ1jiuW12ZVS2dwuwx6bWC63f14sEzfWyfkLXZEHeXjkO8JzXfLSjEq57bOz8tXKGukKu2TY2DW18ucvi+WhH0vlWFVr5IEeHvkMinXm7GqQO78uFnzclYcb5drVmAyrae2QpyaVG4l4WAVgzZEmqWvrkPagU2IqLYGHRx4iFu+UtlinVDS1G3PnPiU9HP/3/Cpp7OgwAjHsF7Xz1x5tkscmlskf9MvbRhfLSPUBnp1aLm/Nq5R3F1R5eOQd3phbKc/8XC73f1tqSP8/o8/KKOX0wfJWgfPMCMP4z6VLMdlb0iIfLq42JhA/9PAYKhihynzc2lo5U9dmzB1nDhnyA4qZL1zskjo1gw6Utcqyg40yZUudOsK1Hh55h2nb6mT1kUbjxzZ1dsrlyzFj6ji+/99vgfw/hFLOEzUa998AAAAASUVORK5CYII=;" parent="1" vertex="1">
          <mxGeometry x="480" y="1130" width="109.43" height="110" as="geometry" />
        </mxCell>
        <mxCell id="a-Nkdi_0TSclpbkDLBsH-32" value="" style="shape=image;verticalLabelPosition=bottom;labelBackgroundColor=default;verticalAlign=top;aspect=fixed;imageAspect=0;image=data:image/png,iVBORw0KGgoAAAANSUhEUgAAAL8AAAC9CAYAAADiIqwNAAAAAXNSR0IArs4c6QAAAARnQU1BAACxjwv8YQUAAAAJcEhZcwAAEnQAABJ0Ad5mH3gAAChbSURBVHhe7Z13e1vHte71yU4S33NyYjuO7TTH9+bGySn35OQklotkWVbvvfdi9WZVq/cuihRJkWIBCXaC6CDRWLBR9Dzrrnc2N7UJDkGAACkCe/74PZSAjV3fWbPWmjWzZ71O9JKZ2FCA/H1+anF6qKbNTVUtLoWiOGl1UUOXm3p8Por2BygVH631EfGHI366WumgL4/Y6d/2NNH/2WGj329ppN9tViiKFNbvp9ts9NmuJvp/+5ppx40OanN6KaGZxN/NLWP+qVZ6Z3k9/dPSOoWiZPn9Fhvdru2hWCxAs0Js8VddbKN/WVkv+PPOJlpxro0O3uuki+XddI17A4WiGLnywkEnH3fRlqvtNPuQnT5Y30A/XVYneoIKu4tm3ah20IfrG+kXq+tp45V26vK86RYUilIhEg3QtSoH/ZHd+Z8tr6NV59toFlrEz9jd+eZ4ixC+7IcKRSmAZA56gvfXNghm/Y59oHfXNNCpJ100xF/KfqRQlAq2bg/9574m4f7M+nBDo8jq3K9zUlxT4leUNk6/lxaebqF3VtTr4v/DVhs9boD45T9QKEoFd8BHS35opf/1RvyN9KihR1l+RcnjUuJXWBUlfoVlUeJXWBYlfoVlUeJXWBYlfoVlUeLPkWS8V9SDB4I+6h8YWxc+Eblunw8Ype8L+8VQvuz7TGixAA3w9WEf5nPG9eO6UQSZGNYI6r+i/f7hz0bvpxCkJJ8VAiX+HIHwL1U4aPGZVrpZ00MDg9nfJ4jmapWDmro9FGdx4TMIs6HLQ1Wt7qxw+HwjosuEK+ClA3c7aeWFNmrscku3ycSLFhdtu94uqnnRCIzP0Zh+eNZNK863UrdXr//CXxwLFcGeXt/Itga4bkyIqut006sMNDk8o45lgHM49qiLmvl7NL707yeLEn+O4OFvutIuSr733+2gSNQv3S4diP04P8BfrW+g/znYLMpo8Zk/5KPPD9vFZItsOPKgi/rZysqOYQYP9h/fN9M/83keedgpFVUmzpZ1i3NddKaFgnzNEO8zm5Muv3DQfx9oFtWQJ5900VP+DAVi/3t7oxDRuefd4rPqVtfIvbH3eGj+yRYxmeQPGfgfPt82l0f89lJFtxA7ep2/HmiiX29qpOtsOAyjUQimXPzoBm++dNCumx10r7aHBrOwlBh2/v5eJ+273UGtfDNk26Rz71UP7eZj7LjeIW52Nl3lsyYn7bnVQduutVM9W55suuxeFuu6H9uEqI7xQ+8fyE78AA/zL7ub6CdGHTlbV0+fj4Vjk062kIEZSBAVGiEs4l6+R7v5GtLZfqOd/psbGR4s6rU2Xm6TbgfQKP18HuZzTRf/2kttQvCyc5Lxf3fYuMfRnx16nr/xufyc7xmuHYVkuH8wIPj3T3h7nCfuA+7Rpqvt9Mt1DXSaGxeeSdGKHye79KwulnV8A0N8I2XbmWlkt+C3mxvFDcC5yLZJZ/2P7fTzVfrss1Xc1UMcsu0MomwJYcF+OvxAL1c6hJ8r29aMl0Wy7FybuGEQ31AObg+AWwCX6b01DbTkbCv5OHZAV26AB/7LdfU057idnPxwzN8BYz+dHq8QVC6CHI/fb7WRfdjKwq3z8TUeetAp7v83J+zC6qORoMf6j71N4nOI+M/ckPEZ/v7ral3Y/75H/2zZuVbqcI8ui8dcWsye+nfeBxqG0+8TxgCN81G9c+T+K/HnIX7M0qlpz2zJ4XvDshkCyFb8uGHfndIrAW+xz48pcLLtMoG5Eie416jFObLg4AujIcGX/jt3/XgYENnRh13iM3Ce3QlMwDauCY37Av9mD1v+XSzMfIA/DcGjV8Ykj/l8fZjo8c6KOvpoQ4Nwy+DOiIbBjRW9je6i6OJu5caxhp/tPw7ZOSYZfx6IEv80iB9sZVcG2QfZtmF2G744gok7b6yfIX64NRDiVg72tvA+0ll5oVVMiEZ3Deu86UqbdDtwhfcJwaQfHxY8xoGuYcnh4uFaMZEI1hPng7/4vwFm1x1ha5ze08C96w35xT171cGBY5agwaEXgrgMF7Gfz3X/nU4+Flv24fuCvz9Zps/sg3u0mntVLGzw1/3Nogdbxf/HXwgfny1lMZ152j3S8+I679f10IbL7fTVUbvoIXCt35xooQWnW+j9tfX0r/zcPuffrzjfJrbFPpX48xD/x3yzmtn3N7sKBrjBH296Y/WBIX64E3gwuCEQuAxDGLLvzMBfhkVFDLL5aod4uAYXyh3cCPV7DN8f86TxIHDNuA64RDs5hoG78SkHkxDN4ftjxQ9uvuxh16VR/C5bfrGGYxbuWcyNE40AYkXacvfNdjGxCb1AD1tzpDxh3SFUNMxMzOP752Krjn0i04Pe6V0+nnHfgLHtyP+HP9t3p4P1ot8HJf4cxY/5CB9yV41g6jBbynTLiwAVDxHiRIbil2x5cNMN8cOnx+8WnG6l+SfTaaF/22MTNwsPDNc0m12CsdvpwFLiepEl+XijPmHaeOB4wH52IcznhsQAGi2eAfxlI7+O4yJGGE/8D9llgP8PVyVb/rTTRheeO4Q40/cHqw1XB+f5t4N2kYKEEcF9w3Vs5YZcZnPRC7t7FHDPcO/N4sc9reTGffxRJ/cYevYJWR8E7tuvdwi36r21evxz4F6HcI1WX1SWf1Lix43H7ByjKzWLCCCNhrWIIERYGTwI/Dsbnx8PAlYMLgiEAb8fE38y/Q7WtMPtEa4NHjhcBjRMQ/xwQeBnX37RLc5biIOfwQluOPgM4HzxGzQC+P54aOYeDessIUWIni5b0BsFgn5pz/iAGxP8cKOBQ/RwkfAX1/7rjY0iW/XnNJCuRJxgFr8B4gm4jLgOuIpwSZHVk/n8uMZF7Eo9rO+hpBK/fDszhvgRjD5gt+bTbY3CCkE8xk1FrhtWHd055m7CIuMhZit+uAMiZcfHwfn9C/+FiAMcJ8i2l3Gxops+4OsyxI/gDi6NuVeAC4D/GxjugvE5LL1ZBGVNTprHDQNZlmz5x6FmbnQ9Y/L/WNkA8QqeF473zyyMD9c3iOwPfHQkE+C772S3yJwuBcvPtQr3Jl38yXiAnjQ6xeJnuFaIGD3YeOIPojGz0fJzLOPnBvrn3Tb6Dd9vuHdK/BLM4seI4xruOvH/5efahCuDbZBl+ZwfOgLdixUOkd6DxYKgshH/8yaXsEBI7Z3moM5Yye55syvr+5Uu/ls1Do4H2sW9yRYx0skW0dinyFxxQ0cDyRbcg0P3x/r8uBZc13ss4nd4G/Q6aPBwTz7bZeNnUk9fce+143q7GLsxs4yvCYYlXfx4Hmg46CmRaOjh73Cs8cSP54X78wm7sLjfOA9shyUHzdedLyUpfgRouFHIyiC1BtGie7/BlgOWCw8R7hAaQ7biH+RY4Vu2rsIN4IaFrNDmKwgKdevvlgzry0gXPz7DuWHgCq5AJiBUuF7p+xxk6x0YtpJZw9tjrMPsEmIfKy600ScsRogVqeCFHLSfftLNPWaX8Mvh88NHB3Bh0FtBPLgPxucQFIRt7BfXh1Hfb0/aydbtHnG1kAz4knsRjA3crukR14jv8BeDdBA+NAA3C9k7nLexz0JQsuKHUPAAcVyM/EJoyFxgG+SpEehlK35M5r/AfqjxILC4V2woIPxsWEa4V2eedmU1ei0TPx7CIn4IyPFnAtfYnjZwBLHcq3OOjAfkApbqgytn7Auj6XADMYK9l+MhY4QXlhvp1Np2lxhJv829FVjIfjnWvME9R9xifI4AF9unN1TUQZnrkmD947Fe4RKhEezg5wQXEr/DPanjeKiGj4nnhO3M+yoEJSt+3MBrWIGOhYmg9hRbr9+wJUEsAB8Zv8lW/BhcEqPBvN3K823CqhkWEwNNOMafdjaJ/U7kk5rF38hWEKOnyKagbgeuCK4Z+zODz3BsLLCKMgzz/jRuhHBLZK7NRGAgDasWQ4TYFxojMjAPuDGd5sZsiP9lm1v49DhnM3CPYP3hBmI783ew1F3DhW9ooOV2l0gWIH1rBkmAucft4tn9gZ/Nem546duAH18gNawsv5R08eMzWObZh5uFrwkLBd8Rw+7obvF9NuLHNuhB8JBxTuk1QHAV1vIDw7E/ZR/VKFgz78OMIX4Ids7xFlp9sV1YSogfjRQZDhzTzGO2jAj4Mokf9xeZJPRyyGJlAj45zjdd/Lh+3DvU8vxgqu25z9Ye90nWgMbjE9YRBtKwX1j77+93imPiXqczXqBv5utjdiFW41wLwbSKH4VLy87igbdKOcc3HDlmQ/w4qdlHmqXbgg2X20TqEpZFJn4MzCDFiM9xc2FFf3zRLVwWfA9hjSd+3GT49fB5ce4oykK2QbaSXZPDTZ9zI0Od0CccY6ABGMdIBz0FxG+IBIJHuhTi/xOfC3qB9N+0cCOGmDKJH752tq4XekQEyOniN3PWJH6s3I3VzarbXFTJ9xsj4OjpIFqklNFjISDFsvb4HtvVc29pBNN4PmjgB+9y42Prb2Yv9yhGY8S9QMVs+jYAi80ag4KFYlrFbzzw8dBHE30j4pdtYwY3Hg8CllgmfoCbjgAX20Mk5rz/eOKHH4zfzWFrg/OGnw8xZCoLRi0R6l3Qy+AhnmWfGm6EOaDEeSJYRooUvRBqXJ5wIGi4PchuIHNTy76umess1o/5HDKJH/l3VKcawsvE/rudoqwgW/GjJ8B1wI9HL4Q0Ke4Ljov/w83B8eH+IHuF4N/oHfE73DekL2HY0sE+hUHgY8G6YwxCth1AUsDc6+bLlIsfrR6WDYVcKNTKBPLzuEBE9RjokG1jBvXkRs13WZNL/B/7MPuGERbyHQ7sULyFwMo8QoqsApauxncY9MGNxSQQBHsQIywb0nAQArY1ficDAkI3DysGYUBcELoR1AIYgnkn7KK04Dt2pTDABZcAQazu8+t1L5Px+XGu7/Ex4R7BcGTi/eH9ZSt+uI+oU1rMQsH+IXT8G41W40AUBmXVBd31w7miPAS/x2w39EToETCpBkJLB/v5r/3cmFiAyO7g/sm2AygBgWDTz3WyTLn4iw1R28MBGLpyWPKnNpfovmUCkeHgIG/HjXbh2qAGvi9tAOwWu05IGyIYNKyYIX40GpQeIPVn5o879ZHTTOKHmOHKwLVEIJqJj7gXyUX8CMwRT+A3cG+wkLE56MdfNHJkfPA97h3Swtg3jBlGdA3XMx/+dqBZjM2kn+tkUeKXgKwNLN1kswvw9+FeeLPM/aO0F6ULGCRC44OYzHSzG/fdKY5z2Hq2OUc/fDynTVfbaC73KHe510PPlv77dMqaXUKcCNR93MvKxI9pjFuudtD5cr3+B3n4cr4vE8UUwbCP71236NXQ6wMMWrU4vdy75gdSrkOD8uNOBiV+hWVR4ldYFiV+hWVR4ldYFiV+hWVR4ldYFiV+hWVR4ldYFiV+hWVR4ldYFiV+hWVR4ldYljHix+z7BadaxYwgTDRQKEqVjZfb6Y/b9XWbhPhlpaQKRakjxI+acszgn33ITl8cVihKFyxKgDkLmAgkxI+ZPj9WdIupgJiwoFCUKphzgJl1mCikAl6FpVDZHoVlUeJXWBYlfoVlUeJXWBYlfoVlUeJXWBYlfoVlUeJXWBYlfoVlUeJXWBYlfoVlUeJXWBYlfoVlUeJXWBYlfoVlUeJXWBYl/nFIxVyUCtVToucGxe2HKF67gbSKhRSvWkmJhl2UaD9LSd8zSg200+t4Yd8Pq5gelPjNCMHXsbDPkFa1nGJlcyj27OvMPJ9HGjeGpOcxN4QObgiFe2GaYmpR4gdsuVPhRkp0nCPt5RrSWNBSoY/LHL1XsO3jRvCEUoPdvF/lNs50lPhZ+El/BcXrt7MVny8Rdg5wT4EeI9F5nlL9bbx/1QBmMtYWP4QfYOG/2sTCnTtaxM+/Ia18/nAvkIX7Y0Ir/44SrSfpNdwg2XEVMwJLiz/ZW0kaB7Ijwofo4b6w6xN/tVmndhNp1ewK8eexZ6YGMhEVC4Qb9Xqgk4+leoCZiGXFnwo3UaJxN8XKvx0RrFa+gIW/VvQEI+IfRuPPYdFz6QW0ymWU6LmuYoAZijXFz2JMtJxga77gjVDZ6serVrCl3zhG+AL0AMgAsTtkFvhExGvWU8pfTq+1wr05fLLghdAxrY8ig0EKDgTF31isT7yYWrZ9qWM98cd9lOy5SbEXi0aJFP697u6MtfoGWg2sf45BMccMidYTlIq28PHf3j0dYpF3BcNU543SS7dBP73yRKmzL8zfB6W/K2UsJ36IMN78Pfv3oy14JpdnhJp13FvA9TGJOwviNWso6Stj6++VntNUkmL6h4LUHIhQpaufXjjHUumKUoMvQqH+kOgdZPspRSwm/gAlAy+Gg9zRvrvGjSFetUq4N1LhM1r1ykmMAfC+OVhOdJzn4LdLck5TB4Q/MNRHrRmEb4Dvm/0RCrMrhN/J9ldqWEv8MTclHNfY5VkiF2nlElHGIBO+KG94sfhNZigX+Dfx+h1i9Ph1fPrua5ytuDscohp2cWSCTwdukINdI02T76/UsJT4UYeTsB+m2Hh+O1t/rXr52AYA4Vei3CG3YNcMRo4x+judro9u9cNUKRG6DFj/Fu4l4CbJ9ldqWEv80VZRghB7/ia9OQZzrh+NoHq1iAdyyvFL0KpWUNJ1b9qyPnBdkM2BK5O1+JlG+P4DSvzSHxQzqYid4g27RAZGJtAxpMUF+aDn/G8J10t2boVm0uL3RpX4S1L84SbS6rbn5b5MFsQTSY43UDkqO7dCo2d5+oQbk4v40Vgig33SfZYaFhN/M2n1O1n8uWds8gWWP+m4MW2WH2haHwewIXrpyi7greaAt5MD3pgKeEtP/MlIC2mNe96O+OHzO++wzz994tddnz6yZen61Hv7qddCuX5rWf6Bdoo3Hxo/2zOFaBw4Jz2Ppn2gK8FC9kVDVOfN3AAw0uuNhMT2sv2UIpYS/+shJyU6L1KsYnRpw9Qzh+J1mynZVy3KqKXnNoXAkvf1B8nO/n8Ni9wY8EJjQJkD/PxANCjGBWS/L1WsJf54QJQZIOeea41+Poj6/raT3PNggovkvKYBFK+hiA0juAF2bWDl8Tc8EBR1P1YZ1TVjLfEzmK4Yb4Dfn1/ePhdQFpHyPJzWYHcirCj2dKwnfpQ4dF9m1weTU+RiLSjcyBKN+8RKEGqVh5lFmvgbSl78IBVpojiyPplGegsE5gAk3fenLb+vyJ434q+jWR9tqC868SM7ER0KigIu5KiBIxSmXg7wMHFD2r1j7q73iZidNZXuD+YBJ1qO0+tIy7QWtCmywxD/r1dX0KyPN9QVlfgHOVDrYLHXeqJU5dKzFyKLwf+uZhp8URHUSfPWcR8lHDf02VlTEPxqqORsPihKKpS7MzMxxP/zFa8g/uKx/KGBEDWxuDPWqfN3Lz391MM9gbRMd9Ah6uy1yqUs2AI2AMwNqNtCyUAlvdbUIlYzlaIMeIfYnUFuGtZeKvo0UM/ujYSleWxMLk86rotBqEK4QCKt2XyYUn0vp31AS5EbRSd++PiYi4o6FJnQx6PBi4KtoHyydswt1t0UKVBRvpx7LzD4dA55Hi+lPtsZSoSblatTBBSd+KODfSxkdnckAs8EtncK92ecikUWK9baTDpvk/Zqc9aZoMGnX5Pj7rd09sRamrv1CJ1/UEF9IZdlV0QoJopO/J5wWEy3kwl8IhAAo8x3wgGeuJeSvVXcE+zWF6tCQ8AcgBHwf6ZqJZ07u4c+W3WK3v3uHP1i/jn6r83XqKy+mWJDyvLPdIpO/M5QKGeXxwDiR8+R9eimxr3BULdY8SEVtok5uBiswjhBqr+dv/dQt9tBq048oo+WXBTi/2jJJdp56bn4PKnSmzOa4hM/W/5pE38WDA366WZFPf3HpuvC+r/LDeAvG67Rted1FI2qTM9MpujE74uEqDbL1QjSafJFxKTuQte1uP1OtvZl9OtluvX/YNEFWnr0ITV3dXKArqz/TKXoxN/Plrtxovy+hDcBr3y/+ZDge/XkVRP9J/v77w37/r9fcYmO36mkcFg+YT3FLlVy0MNulZdjDNVA3gZFJ/5EvI86+iJiBFcm8vFAqjM6hQsyaRzgXnhUQ5+uujwS/M7edZsqGpppoLeL4l4OgturKPL4IvUe30TeLd+Se81s8qz9gny7FlPw4j4aeHmXNEcdJQJtlBp0q0YxxRSd+AHq0jExI9tBLpQ/eCNBvib5/gpFe083rTj+iD5cfIF9/7P0ycJTdHj/Keo4s598+1aQZ+Mccq+ezXwuhxuCd+t86j26kaLcSOJODq7RM0iONSWgscXcYokXDNJh7APLrSD9m3Q/oJT/ub7w1mBXSQzgFaX4AeamYmWCiRoARndd4dD4+f0CkogF6OFLG32+7Tp9uegAnV22nOpWziXH6i/kYs+AZ9NcChxaR9FnlykRYrFNcS+QivWIpVWwrpFWu1FfmhEr1CGli9Uuyr8TK1BgIlC8bivF7Uco6X0mSsRl+ysGilb8AIKGHy8LgOHjowQi2B+c1gnZwT4n3Tp/kcrWLmbRZ7DyWYJGELp6iOKeJpF6lR1z0nCDSg10s3W/Q9qrDbrQJQN5cuaIBhFv3CfGRIrxRXxFLX6AkdSBWJDckZBYaruDwXIdWHgpzvGB7DdTRYoD2MGa++Q/sEq4MLqAuQGs+5Jdnm/Is/lb8de97ivh76cLfTw867+i4OWDpDkbRKAsO3bOaD5Khhoo3pxh+casmCMKA5OdF4vuLTRFL/6ZQmrALQJW376VLOxh4fNfz+Z55NuzgvwH15H/+/UC796V5Nky39RAJgY9QPjGMQ6cUSKd57PRPJTCCHbjntGrTmOFOhT3iQK/3OqbNO41EvajwzPWiqMXUOIvAAhKhxqfkv/QWhb0l7pgkcnZNI/8e1ex4N8I38C3b5XoCbLuAXg73/YFFH1wjpJhvOZIfi4TwsLHMu1YgPfNynVzRTUq1haKv1wt0KrY50dpRy6VrmXzKGE7IEbAiyFTpcRfABL+VgpdOUSeDcjm6GL1rP+afLuXjrL46Xh3L9NdILPIM7HmcwocWEmD3NDgYsnOJSOYwRZ8RXGxap1h2bEw7wLx4o1RK1ODmvUUq8Sy7Dn0AugBWo7Ra5R/yM5hBqHEnyepIfj598i3l4VsCnDh2/vZBZKJ3sALF2nj3OytP+Bt+87vEeMGuVlXDm7ZIifwVhqTq6OVf6tb+3ThG2CZF+4VRgl8ApAlSvRM79KMk0GJP0+SwU7d6kPEJpHi/352bWSiNxDiZ18+J/Ez6FEGXj0QDU92TlJiHko47wjXZsSfx3LsLFRYeKnwAdKeYqZbLu7PXPE79DIzOQBW4s+TWMdL6j22cUzwqrs9yzK4PevY7VnObs/Xo36XDcj+hO+epkQoy+wK9xDJUJ2+PLt5hWoh/iUs/nHeRgOE+PFijtxmuYkZbR3nuYH2yM9pBqDEnwdIO0YeXSDvtu/GWu81GK1dQP4DayXC54B3/2rybMXvch8Aw7F6T24VDS+b3H+Kg9yE654Q+iiRCvEvys7y5yh+9C5xLNsSrBWxhuy83jZK/HmQjDio79J+YYmlIkW5wraF5N+/ZrT4uUF4ty/OLdhNw7driYg1sgl8U4NdlGj/QVjjdJHi7ZLxGryFUiJ8YLyLLMfUJ8C+sULGTPX9lfjzINHbTn3ndo8vfoBcPwe/3h2LhRuEv+5N3+SU45fh3bGA+itvifEF2bmZwUQclCRIrTe7QbDsY95DZgi/cpnYZszvskCsW8QBtv4Gevm5vU2U+PMg4bVT3w87M4t/ivBsm0/R51cp1e+UntsISG/2Vg6vTyQXKRqFcH+qVws3R7xtHi/chptkHgTLGaxOvU3MjZae21tGiT8PNJeNek9vJ8+64YGtaaRr3Rx6ePQwnbr+jI7drqKj43DyTjk9fnCOgk+zWJt0uIBNIESfu6uTDhpSql+Jv+SIe5qp98wOFv/0W/6mlV/RxsWb6ePvTou5A+Pxm8Wnacf+LeR9kI8FnzxwncR8Z8n9e9so8ecBJp1M6PNPEfUr59DqRVvpo/kTif8U7TqwmXxK/GNQ4s+DZNhBwYvI9uSeq8+XmhVzaemi7fSr+Wekojf4cOEZWrVzB7nu5VKuXDgQQyjxlyDI82OwybNlnlSgU8dschxYS3WP7tHzOptYJ2g8ntc3ka32HgfHaTn+aUArQ8C7VQW8pcpQUxkFRDVnfqnLXHCtmS3KmxN9LKos6ntE3T4HnrkPVOWHWKm66QCLv0t6Xm8bJf48gQCDGOgyVXRONd5tC6j/xU0Sk9wl55ROaqCTEq2nci5QyxfU+Ce7r1Jqhr6YQ4k/TzDIFC2/JkZcZUItNEir9v2wi7SehqynNYpXMWENUjFSKxdq4cEMr2X6atWqvKFEYbcj7rYNW/+pD3xROt1fc4+SWYzsjoDCtr4aMeA02dHaXBEzu1pO0OsZOroLlPgLAGZyDVTfJd/2hVLBFgpMiQzfPqWv5iA5j4xgBpfzll6uIBFrYWGrj6I2vJwjMTOtPlDiLxAoMBuovEW+3ez+5Fifnw1Y8yf040FKYBUHyfEnZrisWbyIb2qtv1a+gBKdl8RLv+XnMjNQ4i8gqYiD+suukh+zugqY/cEgGmqItI5qeh3LY3I4rL/3iajilIm2IHDDitv2ivcdz/SVHJT4C0yy30mRytvUs28VOSdTq5+GZ/M3FGSLr3XVcuCa/6oImFySgPtjntFVIJDX12o2UspfwXHGzF/BQYm/wAwO+OhueQ1t2nacLi9fSi0rvySXRNQTgTU8/XuXU/TJj6J0uqALVg25KOl+WNBXsWocSIsBLQ6s1dIlFgSL4LY6umnhofv0waLzorzg64V76cmqReTEdMWJXCHECuu+JC9b+/DVw+zf5zpJPRf8lOKAVBN1/vmVLWvl8ylhPzxjB7PGQ4k/I3wPsCArBmnYXRCTMoYceiCH2Ulp+WuP30lbz5XRb5dferNS886bVF5VQ1H7C4o+usC++3YKHFoj4gLfzkVihWb//pXUe3QDBS9/T/0v71Lc1chC4mNOmfCHYQuNiS6Jjguifj+n5Qrh4mDJk/odYjHbmZzSHA8lfhksOhRj4aHG28+IRVnjzYfEUH286aBY4i/ecpwSXZe5m68VDSES8dDZhy/ps3VX6b3vdKv/l/VX6VpZHYX4O31pdN7voIsS/hbSumtpqOUFxdoqKe5sEKtAFMKnzx00cD6/4CtKOK7r2SAsViUTPCNKFjhewNo8YuVm8ZLt4nBz0lHiN8OWPBWs1ee71m6mCV9Lyu4CVjMeatxHzx+fp8+3XqL3F+jCh/U/eP0FBfqK6M2MuH68kbKvSggb4wKJ7qvMFdEwxFLl3if6koQijVncGlHiHwb+aqLjIollOiaRBel/OpeeXFxKczbup98s+YGWH3tInc5u9UrSGYwSP/v0qd5qsYQfJlzLhJ0LqJu/cG4fVddV09CAegP7TMba4h8e9IGLg1SdLmC2+sNzWRHQiUrIHOthBssXktZ6kv3hqX8Te0LrFS/Zw5Lsvf1BCjB4J0F0KCjeXzBVr2EqBSwtfn214i2mVB8yGAv1tSuxkBOW8+C/GlYtRkPIwR3CfhJdFznAdUiPnS94xVIgGqTWQES8bwyvXnrp1sHLOuq8UfFyjp5QmAan4A2UpYBlxZ+K2ijesHPU0hz6asVYwGnT6PVrGAwI6Ys+Zd8A4i8W6fXsBWwAyTisfEgIO5v3EeO1TXXefvFqpvg0vJqpmLCk+MUQf8uJtBXM5oohf7FuTZrwBVjLBsFwjnEB3m8lhvsL8AI3iNeD9xCzlZcJPRN4e2V7b5j6VS8wgvXEH/eJNF56bQtGKbEct8zqG7yx/mNFPh548wlmUb2OtvKxJ39P4eZA+K8mIXyDaldUvLppKKZ6AGA58eM1m+I9VGlD+hD1eC7PCDXrchY/GhjihpSvbNLWP8n0sn/f6Ivk/PLtdPB2yp6QcoGA9cTfW82uyAYhSrNIkebUl+vLYPmrV4kZSubfZYNWsUiMIbyeZO1LLBac1Iu3xwPBcJDjBquPQVhL/DE3JXtuUKxSvoyH9mKcBVtBzUZ9DuxkqiCxhEf9dn1kVHZeGUCA64WfL3nd6mRB79HWGyHN4u6PpcQvVjFoOTbuKgaw/pjmp69Xb+oBkO6sXGoaC8gdxAtJ31P2+3NzfQZZoAhUs33bfLbUceww3e8onmlYS/zw9237MlcvsmVHylOrYrFzUIzGkPNbCSXg7Yai+lHL7UVykUH4+lHxUm2ZiCfLSw5+neGQGCSTHdcKWEv8ETtp4tU82dSvY6QXcUH2ef1MIE2a7Lmll0JLzm08gix++OgyAecD4ofuYJifs3VdH2uJP9xE2jQu32FG4zgj6biqzw2QnNt4IDCt9coFnA9wozpZ/Jqy/Fax/M1i8sXbEf8yEWznavn7BoJU65ELOB+E+PvCFFPit4rP30Lxxr2jShqmC8QPSeednH3+IIs/n4Gt8cCAl3J7rCT+/jYxGytWPl8q0KkEYwSYNJ7rQFeYxd8wRT5/T9Dag12WEj/m4SY6L1KsYpFUoFOJWKe+tyrnEufBIb1ycypSnb3RPpXqtIz4WXhJ3zNRolyoLE5WoG6o5bjoeaTnlYFEvI/coZAoS5CJeDIgbWrnBmX1Gh9riZ/BSmJikvY0Br1aNfv77vs5Z3oMMFmlkNYfMYQ/GrK01QfWEz8LMNF5fvr8fqx2YNunlzZMclYXRAqx1rPvn+9gF+YAOEIRMctLdiwrYTnxA5HybNgtyo2lgi0g8cqllHJN3uobIDBFNSZmaslEnQ3oOVoCYdGTyI5hNSwpfiy5kfQ8EvX7hVquTwq7Vgn7keG5vPnfT1hrNIDJ+P8Qvt0fFeUSajKLjkXFzyD4dVwVg09TEvyWzePYYrdYB6iQizqhB/BFQtTEQn6ZxTRGuEkoj+gMRsSkdrWUyhusK34Gyw9i1TX91fwFbACYvcVuFeYOvNYKv5oZYgC4Lih1buFAGOXOlc43vUGlKyp6BzQQTGAPs7WPx5Wrk46lxS9gX1y8saSqQD0AhN98aDjAndpl/GDFUZUJdwilz3BpAP4d48/QS1g9o5MJJX4Q9+oxQO3G4XLnSTQClEK/WEyJttPDPv7UrtejyB8lfhMQbaL7MsXrsE5nlqlQiB6rPmCJbn/FjH3tpmIsSvzpYPnCcCMlXHfFgrVx236x/IiYycW9Aia2aJjrW79dzApDY0kGWPRYonuqlxRXFBQl/vGA24Klu4ccYuViVISmIk2id0CZQmqwS8/dC79eib4YUeJXWBYlfoVlUeJXWBYlfoVlUeJXWBYlfoVlUeJXWBYlfoVlUeJXWBYlfoVlUeJXWBYlfoVlGSX+Xwnx2+hxg5PFL/+BQlEquFn8Sw3xf8Ti/+3mRrpTy5Y/piy/orRx+Lw0/2QLvQPx/2GbjX6+qp4O3u2k/n4lfkXpgimg1W1u+tNOG/10WR3NWnha7wL+ur+ZbN25rSasUBQTg4MB2n6jg36xup5+t9lGsypbXPTbTY30zvI6mn3YTrUdbuX+KEqOQNBPu2520IcbGuhnbPV3879nDQ0FaM/tDnp3TQP909I6/qKePtvZTIu4R9hxvYP28XcKRTGy91YHrb3YRn//3k7vD+v7Jyz8vx+yCy9nFlqFj1vFvjud9MftNvoZ9wDYSKEoNT5Y18DBbitVtbJ3o/Xq4geDAwGq4WDg6MMu2nylnRb/0EpfH7XTF+wKKRRFyRE7fXuyhdaw9Yebc7umh7y9vpF1jUbEb4AFkQa4IfSF/eThDZEXVSiKFX/QR5GonzR270evV9pL/x+G9h2D4cdRRgAAAABJRU5ErkJggg==;" parent="1" vertex="1">
          <mxGeometry x="390" y="1360" width="120.26" height="119" as="geometry" />
        </mxCell>
        <mxCell id="a-Nkdi_0TSclpbkDLBsH-33" value="Text" style="text;html=1;align=center;verticalAlign=middle;whiteSpace=wrap;rounded=0;" parent="1" vertex="1">
          <mxGeometry x="350" y="1230" width="60" height="30" as="geometry" />
        </mxCell>
        <mxCell id="a-Nkdi_0TSclpbkDLBsH-69" style="edgeStyle=orthogonalEdgeStyle;rounded=0;orthogonalLoop=1;jettySize=auto;html=1;exitX=1;exitY=0.5;exitDx=0;exitDy=0;entryX=-0.007;entryY=0.601;entryDx=0;entryDy=0;entryPerimeter=0;strokeColor=#CC0000;" parent="1" source="a-Nkdi_0TSclpbkDLBsH-35" target="a-Nkdi_0TSclpbkDLBsH-52" edge="1">
          <mxGeometry relative="1" as="geometry" />
        </mxCell>
        <mxCell id="a-Nkdi_0TSclpbkDLBsH-90" value="相似信息" style="edgeLabel;html=1;align=center;verticalAlign=middle;resizable=0;points=[];" parent="a-Nkdi_0TSclpbkDLBsH-69" vertex="1" connectable="0">
          <mxGeometry x="-0.025" y="-1" relative="1" as="geometry">
            <mxPoint as="offset" />
          </mxGeometry>
        </mxCell>
        <mxCell id="a-Nkdi_0TSclpbkDLBsH-35" value="Utterance最相似的context" style="rounded=1;whiteSpace=wrap;html=1;strokeColor=#0066CC;" parent="1" vertex="1">
          <mxGeometry x="670" y="1155" width="120" height="60" as="geometry" />
        </mxCell>
        <mxCell id="a-Nkdi_0TSclpbkDLBsH-71" style="edgeStyle=orthogonalEdgeStyle;rounded=0;orthogonalLoop=1;jettySize=auto;html=1;exitX=0.5;exitY=1;exitDx=0;exitDy=0;entryX=1;entryY=0.5;entryDx=0;entryDy=0;strokeColor=#CC0000;" parent="1" source="a-Nkdi_0TSclpbkDLBsH-52" target="a-Nkdi_0TSclpbkDLBsH-32" edge="1">
          <mxGeometry relative="1" as="geometry" />
        </mxCell>
        <mxCell id="a-Nkdi_0TSclpbkDLBsH-88" value="询问llm" style="edgeLabel;html=1;align=center;verticalAlign=middle;resizable=0;points=[];" parent="a-Nkdi_0TSclpbkDLBsH-71" vertex="1" connectable="0">
          <mxGeometry x="0.2551" y="1" relative="1" as="geometry">
            <mxPoint as="offset" />
          </mxGeometry>
        </mxCell>
        <mxCell id="a-Nkdi_0TSclpbkDLBsH-52" value="" style="rounded=0;whiteSpace=wrap;html=1;strokeColor=#0066CC;" parent="1" vertex="1">
          <mxGeometry x="880" y="1016" width="170" height="280" as="geometry" />
        </mxCell>
        <mxCell id="a-Nkdi_0TSclpbkDLBsH-51" value="&lt;font style=&quot;font-size: 18px;&quot;&gt;Template&lt;/font&gt;" style="text;html=1;align=center;verticalAlign=middle;whiteSpace=wrap;rounded=0;" parent="1" vertex="1">
          <mxGeometry x="925" y="1030" width="80" height="30" as="geometry" />
        </mxCell>
        <mxCell id="a-Nkdi_0TSclpbkDLBsH-53" value="&lt;b&gt;Utterance最相似的context&lt;/b&gt;" style="rounded=1;whiteSpace=wrap;html=1;" parent="1" vertex="1">
          <mxGeometry x="905" y="1216" width="120" height="60" as="geometry" />
        </mxCell>
        <mxCell id="a-Nkdi_0TSclpbkDLBsH-54" value="&lt;b&gt;Utterance&lt;/b&gt;" style="rounded=1;whiteSpace=wrap;html=1;" parent="1" vertex="1">
          <mxGeometry x="905" y="1150" width="120" height="50" as="geometry" />
        </mxCell>
        <mxCell id="a-Nkdi_0TSclpbkDLBsH-56" value="&lt;b&gt;Conversation&lt;/b&gt;" style="rounded=1;whiteSpace=wrap;html=1;" parent="1" vertex="1">
          <mxGeometry x="905" y="1070" width="120" height="60" as="geometry" />
        </mxCell>
        <mxCell id="a-Nkdi_0TSclpbkDLBsH-65" value="" style="endArrow=none;html=1;rounded=0;strokeColor=#CC0000;" parent="1" edge="1">
          <mxGeometry width="50" height="50" relative="1" as="geometry">
            <mxPoint x="220" y="1140" as="sourcePoint" />
            <mxPoint x="220" y="1080" as="targetPoint" />
          </mxGeometry>
        </mxCell>
        <mxCell id="a-Nkdi_0TSclpbkDLBsH-66" value="" style="endArrow=classic;html=1;rounded=0;strokeColor=#CC0000;" parent="1" edge="1">
          <mxGeometry width="50" height="50" relative="1" as="geometry">
            <mxPoint x="220" y="1080" as="sourcePoint" />
            <mxPoint x="870" y="1080" as="targetPoint" />
          </mxGeometry>
        </mxCell>
        <mxCell id="a-Nkdi_0TSclpbkDLBsH-87" value="查询语句" style="edgeLabel;html=1;align=center;verticalAlign=middle;resizable=0;points=[];" parent="a-Nkdi_0TSclpbkDLBsH-66" vertex="1" connectable="0">
          <mxGeometry x="-0.2488" y="1" relative="1" as="geometry">
            <mxPoint as="offset" />
          </mxGeometry>
        </mxCell>
        <mxCell id="a-Nkdi_0TSclpbkDLBsH-72" value="&lt;b&gt;&lt;font style=&quot;font-size: 18px;&quot;&gt;emotion label&lt;/font&gt;&lt;/b&gt;" style="rounded=1;whiteSpace=wrap;html=1;strokeColor=#0066CC;" parent="1" vertex="1">
          <mxGeometry x="20" y="1389.5" width="120" height="60" as="geometry" />
        </mxCell>
        <mxCell id="a-Nkdi_0TSclpbkDLBsH-73" value="" style="endArrow=classic;html=1;rounded=0;exitX=0;exitY=0.5;exitDx=0;exitDy=0;entryX=1;entryY=0.5;entryDx=0;entryDy=0;strokeColor=#CC0000;" parent="1" source="a-Nkdi_0TSclpbkDLBsH-32" target="a-Nkdi_0TSclpbkDLBsH-72" edge="1">
          <mxGeometry width="50" height="50" relative="1" as="geometry">
            <mxPoint x="290" y="1320" as="sourcePoint" />
            <mxPoint x="340" y="1270" as="targetPoint" />
          </mxGeometry>
        </mxCell>
        <mxCell id="a-Nkdi_0TSclpbkDLBsH-89" value="生成答案" style="edgeLabel;html=1;align=center;verticalAlign=middle;resizable=0;points=[];" parent="a-Nkdi_0TSclpbkDLBsH-73" vertex="1" connectable="0">
          <mxGeometry x="-0.0531" relative="1" as="geometry">
            <mxPoint as="offset" />
          </mxGeometry>
        </mxCell>
        <mxCell id="a-Nkdi_0TSclpbkDLBsH-77" style="edgeStyle=orthogonalEdgeStyle;rounded=0;orthogonalLoop=1;jettySize=auto;html=1;exitX=0.5;exitY=1;exitDx=0;exitDy=0;entryX=0.5;entryY=0;entryDx=0;entryDy=0;strokeColor=#CC0000;" parent="1" source="a-Nkdi_0TSclpbkDLBsH-75" target="a-Nkdi_0TSclpbkDLBsH-19" edge="1">
          <mxGeometry relative="1" as="geometry" />
        </mxCell>
        <mxCell id="a-Nkdi_0TSclpbkDLBsH-79" value="分离对话" style="edgeLabel;html=1;align=center;verticalAlign=middle;resizable=0;points=[];" parent="a-Nkdi_0TSclpbkDLBsH-77" vertex="1" connectable="0">
          <mxGeometry x="-0.1091" y="2" relative="1" as="geometry">
            <mxPoint as="offset" />
          </mxGeometry>
        </mxCell>
        <mxCell id="a-Nkdi_0TSclpbkDLBsH-75" value="&lt;b&gt;&lt;font style=&quot;font-size: 18px;&quot;&gt;Conversation&lt;/font&gt;&lt;/b&gt;" style="rounded=1;whiteSpace=wrap;html=1;strokeColor=#0066CC;" parent="1" vertex="1">
          <mxGeometry x="20" y="940" width="120" height="60" as="geometry" />
        </mxCell>
        <mxCell id="a-Nkdi_0TSclpbkDLBsH-78" style="edgeStyle=orthogonalEdgeStyle;rounded=0;orthogonalLoop=1;jettySize=auto;html=1;exitX=1;exitY=0.5;exitDx=0;exitDy=0;entryX=0.464;entryY=0.004;entryDx=0;entryDy=0;entryPerimeter=0;strokeColor=#CC0000;" parent="1" source="a-Nkdi_0TSclpbkDLBsH-75" target="a-Nkdi_0TSclpbkDLBsH-52" edge="1">
          <mxGeometry relative="1" as="geometry" />
        </mxCell>
        <mxCell id="a-Nkdi_0TSclpbkDLBsH-86" value="上下文背景" style="edgeLabel;html=1;align=center;verticalAlign=middle;resizable=0;points=[];" parent="a-Nkdi_0TSclpbkDLBsH-78" vertex="1" connectable="0">
          <mxGeometry x="-0.2849" relative="1" as="geometry">
            <mxPoint as="offset" />
          </mxGeometry>
        </mxCell>
        <mxCell id="a-Nkdi_0TSclpbkDLBsH-81" value="&lt;b&gt;&lt;font style=&quot;font-size: 14px;&quot;&gt;（1）检索&lt;/font&gt;&lt;/b&gt;" style="text;html=1;align=center;verticalAlign=middle;whiteSpace=wrap;rounded=0;" parent="1" vertex="1">
          <mxGeometry x="400" y="1085" width="80" height="35" as="geometry" />
        </mxCell>
        <mxCell id="a-Nkdi_0TSclpbkDLBsH-84" value="&lt;font style=&quot;font-size: 14px;&quot;&gt;&lt;b&gt;（3）生成&lt;/b&gt;&lt;/font&gt;" style="text;html=1;align=center;verticalAlign=middle;whiteSpace=wrap;rounded=0;" parent="1" vertex="1">
          <mxGeometry x="395" y="1310" width="90" height="30" as="geometry" />
        </mxCell>
        <mxCell id="a-Nkdi_0TSclpbkDLBsH-85" value="&lt;b&gt;&lt;font style=&quot;font-size: 14px;&quot;&gt;（2）增强&lt;/font&gt;&lt;/b&gt;" style="text;html=1;align=center;verticalAlign=middle;whiteSpace=wrap;rounded=0;" parent="1" vertex="1">
          <mxGeometry x="870" y="980" width="80" height="30" as="geometry" />
        </mxCell>
      </root>
    </mxGraphModel>
  </diagram>
</mxfile>
